<svg width="281" height="319" viewBox="0 0 281 319" fill="none" xmlns="http://www.w3.org/2000/svg">
<circle r="10.7442" transform="matrix(-1 0 0 1 29.3105 205.334)" fill="#6CBAA2"/>
<circle r="24.2637" transform="matrix(-1 0 0 1 29.3106 205.334)" stroke="#6CBAA2" stroke-width="4"/>
<path d="M16.232 150.718C16.232 202.145 110.151 296.66 161.578 296.66C213.004 296.66 280.062 264.819 280.062 213.392C280.062 161.965 213.004 110.427 161.578 110.427C110.151 110.427 16.232 99.2908 16.232 150.718Z" fill="#6E6EC4"/>
<path d="M108.698 76.4576C108.698 96.0152 108.698 143.116 212.223 143.116C231.858 143.116 247.776 127.261 247.776 107.704C247.776 88.146 205.426 49.8985 144.252 41.0455C124.616 41.0455 108.698 56.9 108.698 76.4576Z" fill="#DCEFE9"/>
<path d="M110.427 11.8644L135.416 20.3431C138.662 21.4445 140.845 24.4913 140.845 27.9189V90.0936C140.845 95.6076 135.398 99.4685 130.195 97.6419L105.207 88.8688C102.002 87.7436 99.8567 84.7172 99.8567 81.3205V19.4402C99.8567 13.9617 105.239 10.1041 110.427 11.8644Z" fill="#6CBAA2" stroke="#DCEFE9"/>
<path d="M101.614 84.1347V15.1394C101.614 13.7777 102.945 12.8142 104.238 13.2394L111.305 15.5624C112.126 15.8322 112.68 16.5985 112.68 17.4624V17.7817C112.68 18.6301 113.216 19.3863 114.016 19.6681L123.849 23.1312C124.7 23.431 125.592 22.7994 125.592 21.897C125.592 21.0113 126.453 20.3815 127.297 20.6503L137.11 23.7751C137.94 24.0393 138.503 24.81 138.503 25.6808V95.0931C138.503 96.4581 137.166 97.422 135.871 96.9905L102.981 86.0321C102.164 85.76 101.614 84.9956 101.614 84.1347Z" fill="#6CBAA2" stroke="#DCEFE9"/>
<path d="M119.18 26.43L135.576 31.5118V34.0422L119.18 28.6665V26.43Z" fill="#6CBAA2" stroke="#DCEFE9"/>
<path d="M119.18 70.9322L135.576 76.4049V79.1299L119.18 73.3407V70.9322Z" fill="#6CBAA2" stroke="#DCEFE9"/>
<path d="M105.713 26.43L135.576 36.1671V47.51L105.713 37.4695V26.43Z" fill="#6CBAA2" stroke="#DCEFE9"/>
<path d="M105.713 70.9322L135.576 80.6693V92.0121L105.713 81.9717V70.9322Z" fill="#6CBAA2" stroke="#DCEFE9"/>
<g filter="url(#filter0_d)">
<path d="M121.866 56.1028L130.163 59.132C130.952 59.4201 131.477 60.1706 131.477 61.0107V68.0061C131.477 69.4134 130.062 70.3806 128.751 69.8696L120.454 66.6361C119.686 66.3368 119.18 65.5969 119.18 64.7726V57.9815C119.18 56.5925 120.561 55.6264 121.866 56.1028Z" fill="#6CBAA2"/>
<path d="M121.866 56.1028L130.163 59.132C130.952 59.4201 131.477 60.1706 131.477 61.0107V68.0061C131.477 69.4134 130.062 70.3806 128.751 69.8696L120.454 66.6361C119.686 66.3368 119.18 65.5969 119.18 64.7726V57.9815C119.18 56.5925 120.561 55.6264 121.866 56.1028Z" stroke="#DCEFE9"/>
</g>
<g filter="url(#filter1_d)">
<path d="M106.056 50.8328L114.353 53.862C115.142 54.1501 115.667 54.9006 115.667 55.7407V62.7361C115.667 64.1434 114.252 65.1106 112.941 64.5996L104.644 61.3661C103.876 61.0668 103.37 60.3269 103.37 59.5026V52.7115C103.37 51.3225 104.752 50.3564 106.056 50.8328Z" fill="#6CBAA2"/>
<path d="M106.056 50.8328L114.353 53.862C115.142 54.1501 115.667 54.9006 115.667 55.7407V62.7361C115.667 64.1434 114.252 65.1106 112.941 64.5996L104.644 61.3661C103.876 61.0668 103.37 60.3269 103.37 59.5026V52.7115C103.37 51.3225 104.752 50.3564 106.056 50.8328Z" stroke="#DCEFE9"/>
</g>
<g filter="url(#filter2_d)">
<path d="M90.2462 43.8062L98.5429 46.8354C99.332 47.1235 99.8569 47.874 99.8569 48.7141V55.7095C99.8569 57.1168 98.442 58.084 97.1307 57.573L88.834 54.3395C88.066 54.0402 87.5603 53.3003 87.5603 52.476V45.6849C87.5603 44.2959 88.9414 43.3298 90.2462 43.8062Z" fill="#6CBAA2"/>
<path d="M90.2462 43.8062L98.5429 46.8354C99.332 47.1235 99.8569 47.874 99.8569 48.7141V55.7095C99.8569 57.1168 98.442 58.084 97.1307 57.573L88.834 54.3395C88.066 54.0402 87.5603 53.3003 87.5603 52.476V45.6849C87.5603 44.2959 88.9414 43.3298 90.2462 43.8062Z" stroke="#DCEFE9"/>
</g>
<path d="M123.279 46.3388L135.576 50.8V55.1221L123.279 50.3599V46.3388Z" fill="#6CBAA2" stroke="#DCEFE9"/>
<path d="M163.8 10.6086L188.789 19.0873C192.035 20.1887 194.218 23.2355 194.218 26.6631V88.8378C194.218 94.3519 188.771 98.2127 183.568 96.3861L158.579 87.613C155.374 86.4878 153.229 83.4614 153.229 80.0647V18.1844C153.229 12.7059 158.612 8.84834 163.8 10.6086Z" fill="#6CBAA2" stroke="#DCEFE9"/>
<path d="M154.987 82.879V13.8836C154.987 12.522 156.318 11.5585 157.611 11.9837L164.678 14.3067C165.499 14.5765 166.054 15.3428 166.054 16.2067V16.526C166.054 17.3744 166.589 18.1306 167.389 18.4124L177.222 21.8755C178.073 22.1753 178.965 21.5437 178.965 20.6413C178.965 19.7556 179.827 19.1258 180.671 19.3946L190.484 22.5194C191.313 22.7836 191.877 23.5543 191.877 24.4251V93.8374C191.877 95.2024 190.54 96.1663 189.245 95.7348L156.355 84.7764C155.538 84.5042 154.987 83.7399 154.987 82.879Z" fill="#6CBAA2" stroke="#DCEFE9"/>
<path d="M172.553 25.1742L188.948 30.256V32.7864L172.553 27.4106V25.1742Z" fill="#6CBAA2" stroke="#DCEFE9"/>
<path d="M172.553 65.2809L188.948 70.7537V73.4787L172.553 67.6894V65.2809Z" fill="#6CBAA2" stroke="#DCEFE9"/>
<path d="M159.085 25.1742L188.948 34.9113V46.2541L159.085 36.2136V25.1742Z" fill="#6CBAA2" stroke="#DCEFE9"/>
<path d="M159.332 47.2083L189.195 56.9453V68.2882L159.332 58.2477V47.2083Z" fill="#6CBAA2" stroke="#DCEFE9"/>
<path d="M176.652 45.083L188.948 49.5443V53.8663L176.652 49.1042V45.083Z" fill="#6CBAA2" stroke="#DCEFE9"/>
<path d="M220.94 53.3064L245.929 61.7851C249.175 62.8865 251.358 65.9333 251.358 69.3609V131.536C251.358 137.05 245.911 140.91 240.708 139.084L215.719 130.311C212.514 129.186 210.369 126.159 210.369 122.762V60.8822C210.369 55.4037 215.752 51.5461 220.94 53.3064Z" fill="#6CBAA2" stroke="#DCEFE9"/>
<path d="M212.126 125.577V56.5815C212.126 55.2198 213.457 54.2563 214.751 54.6815L221.818 57.0045C222.639 57.2743 223.193 58.0406 223.193 58.9045V59.2238C223.193 60.0723 223.729 60.8284 224.529 61.1102L234.362 64.5733C235.213 64.8731 236.105 64.2416 236.105 63.3392C236.105 62.4535 236.966 61.8236 237.81 62.0924L247.623 65.2172C248.453 65.4814 249.016 66.2521 249.016 67.1229V136.535C249.016 137.9 247.679 138.864 246.384 138.433L213.494 127.474C212.677 127.202 212.126 126.438 212.126 125.577Z" fill="#6CBAA2" stroke="#DCEFE9"/>
<path d="M229.693 67.8721L246.089 72.9539V75.4843L229.693 70.1085V67.8721Z" fill="#6CBAA2" stroke="#DCEFE9"/>
<path d="M229.693 107.979L246.089 113.451V116.176L229.693 110.387V107.979Z" fill="#6CBAA2" stroke="#DCEFE9"/>
<path d="M216.225 67.8721L246.089 77.6092V88.952L216.225 78.9115V67.8721Z" fill="#6CBAA2" stroke="#DCEFE9"/>
<path d="M216.472 89.9061L246.335 99.6432V110.986L216.472 100.946V89.9061Z" fill="#6CBAA2" stroke="#DCEFE9"/>
<path d="M233.792 87.7808L246.089 92.242V96.5641L233.792 91.8019V87.7808Z" fill="#6CBAA2" stroke="#DCEFE9"/>
<circle r="9.11541" transform="matrix(-1 0 0 1 118.247 100.656)" fill="#5A5AD8" fill-opacity="0.3" stroke="#131353" stroke-width="3"/>
<path d="M26.9431 154.676C26.9431 157.612 41.7376 162.854 47.2419 164.348V184.399C29.235 181.097 0.0623436 167.765 0.0623436 159.63C0.0623436 149.486 38.0419 114.573 58.3291 90.5118L63.7432 102.307C51.0163 123.066 26.9431 148.779 26.9431 154.676Z" fill="#ED97B8"/>
<path d="M25.3501 125.725C23.3195 127.984 23.5045 131.462 25.7635 133.493C28.0225 135.523 31.5 135.338 33.5307 133.079L25.3501 125.725ZM54.9029 92.8502L25.3501 125.725L33.5307 133.079L63.0834 100.204L54.9029 92.8502Z" fill="url(#paint0_linear)"/>
<path d="M147.263 95.3247C147.263 95.3247 177.222 141.607 175.335 144.768C173.447 147.93 155.283 153.78 155.283 153.78L166.37 171.001C166.37 171.001 199.632 158.64 201.991 151.704C204.35 144.768 159.967 98.6745 159.967 96.976C159.967 94.8529 162.596 95.3247 163.775 93.2016C164.955 91.0786 169.437 90.8427 167.55 88.7196C166.04 87.0211 164.405 88.0119 163.775 88.7196C164.247 88.1691 164.545 86.9044 163.775 85.1811C162.897 83.2123 161.656 83.8281 160.751 84.5302C161.368 83.648 161.783 82.0567 160.439 80.9349C158.367 79.2049 156.597 80.07 155.755 80.9349C157.406 73.8105 163.004 68.6208 161.417 66.9695C159.848 65.3382 158.539 67.9581 157.901 69.2347L157.878 69.281L149.622 83.5298L150.565 85.8888C150.093 84.7093 148.772 82.6334 147.263 83.7657C145.753 84.898 145.061 87.5401 144.904 88.7196L147.263 95.3247Z" fill="#ED97B8"/>
<path d="M192.032 135.098L164.875 102.616L181.015 135.116C181.949 136.105 184.692 137.943 188.188 137.378C191.685 136.813 192.208 135.623 192.032 135.098Z" fill="url(#paint1_linear)"/>
<path d="M187.886 135.981L163.652 101.264L176.909 135.042C177.754 136.109 180.327 138.177 183.859 137.918C187.392 137.658 188.016 136.518 187.886 135.981Z" fill="url(#paint2_linear)"/>
<path d="M62.1506 110.67C69.0638 140.994 86.4005 146.048 101.186 146.048C117.445 142.341 124.018 104.793 118.718 81.5478C113.419 58.3025 92.5339 46.1631 69.6518 55.3631C46.7696 64.5632 56.8512 87.4243 62.1506 110.67Z" fill="#ED97B8"/>
<path d="M88.9959 134.153C78.5142 136.928 70.2026 128.963 66.5855 122.83C61.6789 116.695 55.4983 91.4555 55.4983 74.7067C55.7342 66.6862 61.9619 50.881 84.9856 51.8246C113.765 53.0041 120.606 82.0063 120.606 94.9939C120.606 101.363 93.6433 80.0758 104.093 108.44C107.396 117.404 97.0164 132.03 88.9959 134.153Z" fill="#5A5AD8"/>
<path d="M126.268 94.758H100.319" stroke="#131353" stroke-width="3"/>
<path d="M103.83 104.91C108.68 109.405 109.786 112.703 113.163 112.528C116.832 111.489 116.139 104.152 114.654 98.9056C115.552 90.6982 109.304 88.7742 104.187 91.1458C99.0698 93.5173 99.8309 101.203 103.83 104.91Z" fill="#F3BAD0"/>
<path d="M105.591 103.628C109.187 106.961 110.008 109.406 112.511 109.277C115.232 108.506 114.718 103.066 113.617 99.1762C114.283 93.0908 109.65 91.6643 105.856 93.4227C102.062 95.1811 102.626 100.88 105.591 103.628Z" fill="#F9CDDE"/>
<path d="M55.2628 80.3683C53.6321 67.8657 58.015 66.2144 58.0936 64.3272C58.0936 64.3272 60.3 64.0429 64.6987 62.44C72.7848 59.4935 82.3496 54.6813 91.5911 53.4759C97.0168 52.7682 101.263 56.3067 101.263 56.3067C87.974 61.4178 55.5141 82.2949 55.2628 80.3683Z" fill="black"/>
<path d="M41.8184 6.8298C42.7435 5.30782 44.5551 4.56982 46.2804 5.01207L54.6799 7.16513C55.8358 7.46142 57.0635 7.23238 58.0348 6.53923L66.1434 0.752677C67.767 -0.405969 69.9928 -0.208504 71.387 1.21788L75.4118 5.3354C76.4426 6.38996 77.9655 6.80017 79.3865 6.40603L87.5301 4.14729C89.9325 3.48096 92.3601 5.12486 92.6332 7.60294L93.0059 10.9851C93.214 12.874 94.7086 14.3634 96.5982 14.5651L101.715 15.1112C104.523 15.4109 106.168 18.4223 104.902 20.9471L103.197 24.3505C103.056 24.6311 106.717 20.8061 107.883 35.0359C104.902 44.4973 110.227 48.8247 72.4399 65.0582C31.6732 90.0401 27.8989 73.1441 17.8872 71.9786C16.8808 71.0659 16.3374 69.6591 16.6352 68.1795L17.2634 65.0582C17.6632 63.0723 16.5326 61.0968 14.6178 60.4355L11.0194 59.1928C8.35009 58.2709 7.42244 54.9672 9.22172 52.7906L12.5001 48.8247C13.7108 47.36 13.7391 45.2502 12.5681 43.7536L10.4713 41.0738C8.93494 39.1103 9.52274 36.238 11.7069 35.0359L19.1106 30.961C20.4025 30.25 21.2053 28.8923 21.2057 27.4177L21.2075 21.6598C21.2081 19.6652 22.6623 17.9686 24.6334 17.6629L34.4773 16.136C35.6564 15.9531 36.6947 15.259 37.3145 14.2394L41.8184 6.8298Z" fill="url(#paint3_linear)"/>
<path d="M95.4583 54.4513C113.099 40.9758 108.168 28.5099 103.497 23.9613L82.253 29.7136C60.6773 38.1474 17.9121 57.5489 16.7471 68.1558C15.4059 80.3677 52.8074 82.4944 62.7912 73.1441C83.7934 53.4746 73.4077 71.2956 95.4583 54.4513Z" fill="url(#paint4_linear)"/>
<path d="M99.1062 138.497L82.6795 140.182L85.0707 163.494C91.4955 166.083 95.0928 165.618 101.497 161.809L99.1062 138.497Z" fill="#ED97B8"/>
<path d="M49.3656 158.686L85.9298 169.066L108.576 166.707L153.161 148.543L169.674 176.143L139.479 192.184L147.498 273.679C147.498 296.798 115.646 283.984 98.8501 283.984C82.0542 283.984 66.6174 304.868 66.6174 267.412L55.0272 192.184L39.222 186.994C38.5929 183.22 37.7123 174.35 39.222 169.066C40.7318 163.782 46.6135 159.944 49.3656 158.686Z" fill="url(#paint5_linear)"/>
<path d="M101.97 160.809C95.0824 164.304 91.2561 164.884 84.5138 162.461L82.6046 169.7C92.3919 173.34 97.8357 172.179 107.503 167.146L101.97 160.809Z" fill="#FDEDF3"/>
<path d="M149.4 165.075H111.978C96.5897 171.93 112.678 170.963 122.645 169.622C129.115 168.106 143.524 165.075 149.4 165.075Z" fill="url(#paint6_linear)"/>
<path d="M35.5783 204.14C-30.0809 255.772 58.8574 303.566 110.15 303.566C184.505 303.566 230.467 287.449 245.986 239.656C245.986 193.396 180.625 205.334 149.885 231.598C102.73 287.723 98.253 188.621 35.5783 204.14Z" fill="url(#paint7_linear)"/>
<path d="M105.371 95.6588C104.852 96.9873 103.447 100.079 105.16 100.986C106.189 101.531 106.749 102.397 107.48 103.359C108.298 104.436 108.75 104.714 109.274 105.891C109.426 106.233 109.934 106.715 110.223 106.946C111.074 107.627 112.966 107.168 112.966 106.102" stroke="#FDEDF3" stroke-linecap="round" stroke-linejoin="round"/>
<path d="M30.1819 143.603C32.3912 138.876 34.6416 135.82 38.2517 132.21C40.9635 129.498 42.4925 126.583 44.4227 123.296C46.2643 120.161 49.0129 117.808 50.5937 114.646" stroke="#ED97B8" stroke-linecap="round" stroke-linejoin="round"/>
<path d="M50.5941 114.646C44.5359 124.588 33.6351 132.123 29.2329 143.128" stroke="#ED97B8" stroke-linecap="round" stroke-linejoin="round"/>
<path d="M29.2329 143.128C36.2976 133.511 43.7169 124.171 52.4929 116.071" stroke="#ED97B8" stroke-linecap="round" stroke-linejoin="round"/>
<circle cx="113.376" cy="112.265" r="2.44815" fill="#6E6EC4"/>
<path d="M50.0747 160.179C54.9024 160.976 65.6433 161.678 69.9062 165.468C72.5335 167.803 75.2123 167.451 78.4999 167.451" stroke="url(#paint8_linear)" stroke-width="7" stroke-linecap="round" stroke-linejoin="round"/>
<path d="M28.7407 149.687L60.0421 108.943C56.3699 112.09 48.1161 119.19 44.4788 122.408C40.8416 125.625 32.4712 141.935 28.7407 149.687Z" fill="url(#paint9_linear)"/>
<path d="M192.592 144.966H175.28L159.892 152.66C160.766 153.01 164.508 153.499 172.482 152.66C180.456 151.82 189.211 147.181 192.592 144.966Z" fill="url(#paint10_linear)"/>
<path d="M21.139 59.5331C18.6881 59.2635 11.2827 58.3278 14.0755 53.8921C14.4172 53.3495 16.042 52.7284 16.6262 52.5677C21.0153 51.3607 15.452 41.917 15.3999 39.5199C15.3484 37.1519 17.1253 36.8341 19.275 36.3315C21.998 35.695 23.3549 35.9094 24.2292 32.8979C24.8476 30.768 24.1377 27.9316 25.2103 25.9816C25.7727 24.9589 29.9568 23.57 30.9493 23.3573C33.7004 22.7678 38.1712 23.981 40.588 22.6215C42.6553 21.4587 43.065 18.5575 44.3405 16.7353C46.1357 14.1707 49.3496 14.5034 52.2134 14.5034C55.7886 14.5034 58.0798 15.5945 60.5522 12.3697C61.5635 11.0506 63.3886 10.0888 65.1385 10.0888C68.985 10.0888 67.5715 11.1154 69.7249 13.9148C71.5572 16.2968 73.5856 13.8648 75.2187 12.8111C76.8069 11.7865 79.3873 11.4494 81.2276 11.5113C84.8292 11.6323 84.7779 16.3015 85.1517 18.9181" stroke="url(#paint11_linear)" stroke-width="2" stroke-linecap="round" stroke-linejoin="round"/>
<path d="M29.5273 48.4965C34.9178 42.028 41.1414 39.8743 49.5896 40.501C53.8336 40.8158 57.9536 41.9896 62.1959 42.3159" stroke="url(#paint12_linear)" stroke-width="2" stroke-linecap="round" stroke-linejoin="round"/>
<path d="M53.8076 25.9816C57.1309 24.597 60.5712 23.224 64.2066 22.9895C67.1061 22.8024 69.3714 24.6899 71.5644 26.3495C73.522 27.831 75.4116 29.4675 77.6959 27.8947C80.8263 25.7393 83.7875 23.9216 87.6534 23.7988C94.228 23.5901 96.8946 28.1864 97.5129 34.3695" stroke="url(#paint13_linear)" stroke-width="2" stroke-linecap="round" stroke-linejoin="round"/>
<path d="M26.437 62.1819C31.777 62.3927 36.8975 64.384 42.0846 65.5174C46.4143 66.4635 50.0015 67.3106 53.3175 63.8497C56.9743 60.0329 59.0303 55.5338 64.5013 53.9412C68.4267 52.7985 72.7236 53.0174 76.7643 52.9111" stroke="url(#paint14_linear)" stroke-width="2" stroke-linecap="round" stroke-linejoin="round"/>
<defs>
<filter id="filter0_d" x="106.68" y="48.4793" width="29.2966" height="31.0292" filterUnits="userSpaceOnUse" color-interpolation-filters="sRGB">
<feFlood flood-opacity="0" result="BackgroundImageFix"/>
<feColorMatrix in="SourceAlpha" type="matrix" values="0 0 0 0 0 0 0 0 0 0 0 0 0 0 0 0 0 0 127 0"/>
<feOffset dx="-4" dy="1"/>
<feGaussianBlur stdDeviation="4"/>
<feColorMatrix type="matrix" values="0 0 0 0 0.432 0 0 0 0 0.432 0 0 0 0 0.768 0 0 0 0.5 0"/>
<feBlend mode="normal" in2="BackgroundImageFix" result="effect1_dropShadow"/>
<feBlend mode="normal" in="SourceGraphic" in2="effect1_dropShadow" result="shape"/>
</filter>
<filter id="filter1_d" x="90.8704" y="43.2093" width="29.2966" height="31.0292" filterUnits="userSpaceOnUse" color-interpolation-filters="sRGB">
<feFlood flood-opacity="0" result="BackgroundImageFix"/>
<feColorMatrix in="SourceAlpha" type="matrix" values="0 0 0 0 0 0 0 0 0 0 0 0 0 0 0 0 0 0 127 0"/>
<feOffset dx="-4" dy="1"/>
<feGaussianBlur stdDeviation="4"/>
<feColorMatrix type="matrix" values="0 0 0 0 0.432 0 0 0 0 0.432 0 0 0 0 0.768 0 0 0 0.5 0"/>
<feBlend mode="normal" in2="BackgroundImageFix" result="effect1_dropShadow"/>
<feBlend mode="normal" in="SourceGraphic" in2="effect1_dropShadow" result="shape"/>
</filter>
<filter id="filter2_d" x="75.0603" y="36.1827" width="29.2966" height="31.0292" filterUnits="userSpaceOnUse" color-interpolation-filters="sRGB">
<feFlood flood-opacity="0" result="BackgroundImageFix"/>
<feColorMatrix in="SourceAlpha" type="matrix" values="0 0 0 0 0 0 0 0 0 0 0 0 0 0 0 0 0 0 127 0"/>
<feOffset dx="-4" dy="1"/>
<feGaussianBlur stdDeviation="4"/>
<feColorMatrix type="matrix" values="0 0 0 0 0.432 0 0 0 0 0.432 0 0 0 0 0.768 0 0 0 0.5 0"/>
<feBlend mode="normal" in2="BackgroundImageFix" result="effect1_dropShadow"/>
<feBlend mode="normal" in="SourceGraphic" in2="effect1_dropShadow" result="shape"/>
</filter>
<linearGradient id="paint0_linear" x1="44.2168" y1="96.5271" x2="44.2168" y2="129.402" gradientUnits="userSpaceOnUse">
<stop stop-color="#F8BFD5"/>
<stop offset="1" stop-color="#F8BFD5" stop-opacity="0"/>
</linearGradient>
<linearGradient id="paint1_linear" x1="178.442" y1="102.595" x2="178.498" y2="137.497" gradientUnits="userSpaceOnUse">
<stop stop-color="#DCEFE9"/>
<stop offset="1" stop-color="#DCEFE9" stop-opacity="0"/>
</linearGradient>
<linearGradient id="paint2_linear" x1="178.078" y1="106.844" x2="167.236" y2="132.025" gradientUnits="userSpaceOnUse">
<stop stop-color="#F8BFD5"/>
<stop offset="1" stop-color="#F8BFD5" stop-opacity="0"/>
</linearGradient>
<linearGradient id="paint3_linear" x1="43.3382" y1="11.6396" x2="73.4817" y2="78.791" gradientUnits="userSpaceOnUse">
<stop stop-color="#F8BFD5"/>
<stop offset="1" stop-color="#5A5AD8"/>
</linearGradient>
<linearGradient id="paint4_linear" x1="43.3382" y1="11.6396" x2="73.4817" y2="78.791" gradientUnits="userSpaceOnUse">
<stop stop-color="#F8BFD5"/>
<stop offset="1" stop-color="#5A5AD8"/>
</linearGradient>
<linearGradient id="paint5_linear" x1="94.6718" y1="173.259" x2="111.385" y2="309.353" gradientUnits="userSpaceOnUse">
<stop stop-color="#132653"/>
<stop offset="1" stop-color="#5A5AD8"/>
</linearGradient>
<linearGradient id="paint6_linear" x1="127.9" y1="165.075" x2="127.9" y2="170.58" gradientUnits="userSpaceOnUse">
<stop stop-color="#6E6EC4"/>
<stop offset="1" stop-color="#6E6EC4" stop-opacity="0"/>
</linearGradient>
<linearGradient id="paint7_linear" x1="23.6404" y1="232.792" x2="128.985" y2="302.794" gradientUnits="userSpaceOnUse">
<stop stop-color="#F8BFD5"/>
<stop offset="1" stop-color="#6E6EC4"/>
</linearGradient>
<linearGradient id="paint8_linear" x1="64.2873" y1="160.179" x2="64.2873" y2="167.47" gradientUnits="userSpaceOnUse">
<stop stop-color="#B7B7E1"/>
<stop offset="1" stop-color="#B7B7E1" stop-opacity="0"/>
</linearGradient>
<linearGradient id="paint9_linear" x1="44.3914" y1="108.943" x2="44.3914" y2="149.687" gradientUnits="userSpaceOnUse">
<stop stop-color="#F4508F"/>
<stop offset="1" stop-color="#F4508F" stop-opacity="0"/>
</linearGradient>
<linearGradient id="paint10_linear" x1="176.242" y1="144.966" x2="176.242" y2="153.123" gradientUnits="userSpaceOnUse">
<stop stop-color="#F4508F"/>
<stop offset="1" stop-color="#F4508F" stop-opacity="0"/>
</linearGradient>
<linearGradient id="paint11_linear" x1="49.3036" y1="10.0888" x2="49.3036" y2="59.5331" gradientUnits="userSpaceOnUse">
<stop stop-color="#FDEDF3"/>
<stop offset="1" stop-color="#FDEDF3" stop-opacity="0"/>
</linearGradient>
<linearGradient id="paint12_linear" x1="45.8616" y1="40.3972" x2="45.8616" y2="48.4965" gradientUnits="userSpaceOnUse">
<stop stop-color="#FDEDF3"/>
<stop offset="1" stop-color="#FDEDF3" stop-opacity="0"/>
</linearGradient>
<linearGradient id="paint13_linear" x1="75.6603" y1="22.9766" x2="75.6603" y2="34.3695" gradientUnits="userSpaceOnUse">
<stop stop-color="#FDEDF3"/>
<stop offset="1" stop-color="#FDEDF3" stop-opacity="0"/>
</linearGradient>
<linearGradient id="paint14_linear" x1="51.6006" y1="52.9111" x2="51.6006" y2="66.351" gradientUnits="userSpaceOnUse">
<stop stop-color="#FDEDF3"/>
<stop offset="1" stop-color="#FDEDF3" stop-opacity="0"/>
</linearGradient>
</defs>
</svg>
