<svg width="98" height="24" viewBox="0 0 98 24" fill="none" xmlns="http://www.w3.org/2000/svg">
<path d="M45.2929 12.1068C45.2929 11.6133 44.9976 11.1424 44.5082 11.0789C42.5593 10.8263 40.7287 12.578 38.4448 13.7478C38.009 13.971 37.7147 14.4094 37.7147 14.8991V20.3849C37.7147 21.0639 37.1618 21.6129 36.4828 21.6082L34.3586 21.5933C33.6863 21.5887 33.1438 21.0424 33.1438 20.3701V2.3805C33.1438 1.70155 33.6968 1.15249 34.3757 1.15723L36.4999 1.17207C37.1722 1.17677 37.7147 1.72307 37.7147 2.39534V9.26809C37.7147 10.1681 38.5851 10.6398 39.2507 10.0341C40.4492 8.94339 41.8891 7.54846 43.7821 7.33114C44.5577 7.24211 45.2929 6.67441 45.2929 5.89374V2.34909C45.2929 1.67029 45.8455 1.12129 46.5243 1.12581L48.7324 1.14053C49.4049 1.14501 49.9476 1.69137 49.9476 2.3638V20.3534C49.9476 21.0322 49.3949 21.5812 48.7161 21.5767L46.508 21.5619C45.8356 21.5575 45.2929 21.0111 45.2929 20.3387V12.1068Z" fill="#505C92"/>
<path d="M59.2677 12.3032C59.2826 12.36 59.2934 12.4179 59.2999 12.4762L59.6919 15.9503C59.6956 15.9836 59.7238 16.0087 59.7572 16.0087C59.7904 16.0087 59.8183 15.9841 59.8225 15.9512L60.2659 12.4567C60.2766 12.3726 60.296 12.2898 60.3238 12.2097L63.8766 1.9709C64.0475 1.47865 64.5113 1.14863 65.0323 1.14863H66.0865C66.6103 1.14863 67.076 1.48217 67.2446 1.97813L70.7449 12.2726C70.7711 12.3497 70.7895 12.4292 70.7999 12.51L71.2418 15.9367C71.2471 15.9779 71.2821 16.0087 71.3236 16.0087C71.3654 16.0087 71.4006 15.9774 71.4056 15.9359L71.8345 12.3302L74.3208 2.08347C74.4539 1.53489 74.9451 1.14863 75.5096 1.14863H77.3415C78.1598 1.14863 78.7474 1.93658 78.5139 2.72092L73.1158 20.8565C72.9614 21.3752 72.4846 21.7308 71.9434 21.7308H70.8007C70.2835 21.7308 69.8223 21.4056 69.6485 20.9185L66.0073 10.7103C65.983 10.642 65.9647 10.5717 65.9528 10.5003L65.4624 7.55531C65.4527 7.49723 65.4024 7.45466 65.3436 7.45466C65.2846 7.45466 65.2343 7.49733 65.2247 7.55548L64.734 10.5294C64.7222 10.6009 64.7041 10.6712 64.6798 10.7395L61.0669 20.9168C60.8936 21.4048 60.4319 21.7308 59.9141 21.7308H58.6282C58.0864 21.7308 57.6091 21.3745 57.4553 20.855L52.0828 2.71939C51.8506 1.93539 52.4381 1.14863 53.2558 1.14863H55.3996C55.9558 1.14863 56.4419 1.52376 56.5829 2.06173L59.2677 12.3032Z" fill="#505C92"/>
<path d="M82.6381 0.991741C82.8619 0.285811 83.6567 -0.0609247 84.3264 0.255202L85.1854 0.660706C85.7396 0.922307 86.0147 1.5536 85.829 2.13762L79.149 23.1468C78.919 23.8701 78.0927 24.2116 77.4192 23.8617L76.5877 23.4296C76.0599 23.1554 75.8059 22.5413 75.9856 21.9744L82.6381 0.991741Z" fill="#505C92"/>
<path d="M97.1127 9.58693C97.5679 9.77721 97.8642 10.2223 97.8642 10.7156V11.3431C97.8642 11.7866 97.6241 12.1954 97.2368 12.4114L85.5939 18.9049L85.072 19.2086C84.1141 19.7659 82.9681 18.8643 83.2843 17.8021L83.6625 16.5323C83.7525 16.2299 83.9558 15.9741 84.23 15.8181L90.7601 12.1032C90.8089 12.0754 90.86 12.0518 90.9128 12.0326C91.8154 11.7042 91.781 10.416 90.8626 10.1346L87.2251 8.86152C86.6018 8.64335 86.2641 7.96979 86.4623 7.3398L86.6732 6.66945C86.8891 5.98302 87.648 5.63035 88.3119 5.90789L97.1127 9.58693Z" fill="#505C92"/>
<path d="M0.701227 9.75878C0.27312 9.9608 0 10.3917 0 10.8651V11.3399C0 11.7682 0.22401 12.1653 0.59058 12.3868L10.1697 18.1758L10.598 18.3737C11.6495 18.8593 12.7244 17.7475 12.2035 16.713L11.81 15.9313C11.7081 15.729 11.5521 15.559 11.3593 15.4401L5.89535 12.072C5.84994 12.044 5.80214 12.0201 5.75252 12.0005C4.9661 11.6904 5.00062 10.5658 5.80293 10.2994L11.1172 8.10576C11.3655 8.00327 11.5731 7.82192 11.7081 7.5897L12.1555 6.81985C12.7588 5.7818 11.6616 4.58646 10.5758 5.09886L0.701227 9.75878Z" fill="#505C92"/>
<path d="M13.957 6.13087C13.5292 7.45436 13.3152 8.95302 13.3152 10.6268C13.3152 12.2034 13.5097 13.6436 13.8987 14.9476C14.2877 16.2517 14.8711 17.3708 15.6491 18.305C16.4465 19.2393 17.4286 19.9691 18.5956 20.4946C19.7819 21.0007 21.1628 21.2537 22.7381 21.2537C24.1968 21.2537 25.5096 21.0201 26.6765 20.553C27.8434 20.0664 28.8353 19.3755 29.6522 18.4802C29.8723 18.2337 30.0784 17.9723 30.2703 17.696C30.7854 16.9546 30.1474 16.0316 29.2538 15.9025C28.6599 15.8167 28.0959 15.6763 27.5579 15.4899C27.1144 15.3362 26.6228 15.5179 26.3264 15.8819C25.4707 16.9329 24.2746 17.4584 22.7381 17.4584C21.9018 17.4584 21.1725 17.2929 20.5502 16.9621C19.9472 16.6312 19.4513 16.1641 19.0623 15.5607C18.6733 14.9574 18.3816 14.2372 18.1871 13.4003C17.9926 12.5634 17.8954 11.6389 17.8954 10.6268C17.8954 8.25235 18.3233 6.52013 19.179 5.4302C20.0348 4.34027 21.2211 3.7953 22.7381 3.7953C23.6133 3.7953 24.3524 3.97047 24.9553 4.3208C25.5777 4.65168 26.0833 5.12852 26.4723 5.75134C26.8807 6.3547 27.1725 7.07483 27.3475 7.91174C27.5225 8.74866 27.6101 9.65369 27.6101 10.6268C27.6101 10.8625 27.6061 11.0918 27.5982 11.3145C27.5752 11.9637 28.017 12.5605 28.6648 12.6073C29.5568 12.6717 30.4166 12.6344 31.2361 12.5158C31.7577 12.4402 32.1451 12.0034 32.1703 11.477C32.1836 11.1988 32.1902 10.9154 32.1902 10.6268C32.1902 9.05033 31.986 7.61006 31.5776 6.30604C31.1886 5.00201 30.5954 3.88288 29.798 2.94866C29.0201 2.01443 28.0379 1.2943 26.8516 0.788255C25.6846 0.262752 24.3135 0 22.7381 0C21.26 0 19.9375 0.243289 18.7706 0.729867C17.6037 1.19698 16.6118 1.88792 15.7949 2.80269C14.9975 3.69799 14.3849 4.80738 13.957 6.13087Z" fill="#505C92"/>
<path d="M24.6795 12.2553C29.1671 14.689 35.455 12.2941 37.6239 10.2234C37.755 10.0983 37.9873 10.1751 38.0049 10.3554L38.2071 12.4239C38.2139 12.4937 38.1825 12.5637 38.1267 12.6062C31.0094 18.0283 24.4433 14.1491 21.069 10.5296C20.9012 10.3497 21.1656 10.087 21.3665 10.229C22.1306 10.7691 23.2048 11.4555 24.6795 12.2553Z" fill="#505C92"/>
</svg>
