<svg width="368" height="345" viewBox="0 0 368 345" fill="none" xmlns="http://www.w3.org/2000/svg">
<g filter="url(#filter0_d)">
<path d="M264.515 63.0921L203.411 82.2332L141.938 68.2455L203.411 52.4172L264.515 63.0921Z" fill="#F8F2F4"/>
<path d="M312 212.453L182.671 264.442L72 224.382L182.671 183.46L312 212.453Z" fill="#F8BFD5"/>
<path d="M202.675 82.9695L265.252 63.8284V209.595L202.675 232.049L143.779 209.595V69.3498L202.675 82.9695Z" fill="#E6D1D9"/>
<path d="M264.884 63.8284L203.411 83.7057V232.417L264.884 209.963V63.8284Z" fill="url(#paint0_linear)"/>
<path d="M215.559 84.8097L208.197 87.6334V97.325L215.559 94.4328V84.8097Z" fill="#ED97B8"/>
<path d="M231.019 80.3925L223.657 83.2161V92.9078L231.019 90.0155V80.3925Z" fill="#ED97B8"/>
<path d="M246.479 75.2391L239.117 78.0628V87.7545L246.479 84.8622V75.2391Z" fill="#ED97B8"/>
<path d="M260.467 70.0858L253.105 72.9095V82.6012L260.467 79.7089V70.0858Z" fill="#ED97B8"/>
<path d="M215.559 112.049L208.197 114.873V124.565L215.559 121.672V112.049Z" fill="#F8BFD5"/>
<path d="M231.019 107.632L223.657 110.456V120.147L231.019 117.255V107.632Z" fill="#F8BFD5"/>
<path d="M246.479 102.479L239.117 105.302V114.994L246.479 112.102V102.479Z" fill="#F8BFD5"/>
<path d="M260.467 97.3253L253.105 100.149V109.841L260.467 106.948V97.3253Z" fill="#F8BFD5"/>
<path d="M215.558 139.288L208.197 142.112V151.804L215.558 148.911V139.288Z" fill="#F8F2F4"/>
<path d="M231.018 134.871L223.656 137.695V147.386L231.018 144.494V134.871Z" fill="#F8F2F4"/>
<path d="M246.478 129.718L239.116 132.541V142.233L246.478 139.341V129.718Z" fill="#F8F2F4"/>
<path d="M260.466 124.564L253.104 127.388V137.08L260.466 134.188V124.564Z" fill="#F8F2F4"/>
<path d="M215.558 168.736L208.197 171.56V181.251L215.558 178.359V168.736Z" fill="#B7B7E1"/>
<path d="M231.018 164.319L223.656 167.143V176.834L231.018 173.942V164.319Z" fill="#B7B7E1"/>
<path d="M246.478 159.166L239.116 161.989V171.681L246.478 168.789V159.166Z" fill="#B7B7E1"/>
<path d="M260.466 154.012L253.104 156.836V166.528L260.466 163.635V154.012Z" fill="#B7B7E1"/>
<path d="M215.558 195.975L208.197 198.799V208.49L215.558 205.598V195.975Z" fill="#6E6EC4"/>
<path d="M231.018 191.558L223.656 194.382V204.073L231.018 201.181V191.558Z" fill="#6E6EC4"/>
<path d="M246.478 186.405L239.116 189.228V198.92L246.478 196.028V186.405Z" fill="#6E6EC4"/>
<path d="M260.466 181.251L253.104 184.075V193.767L260.466 190.874V181.251Z" fill="#6E6EC4"/>
<path d="M179.545 136.07L143.183 147.461L106.601 139.137L143.183 129.718L179.545 136.07Z" fill="#F8F2F4"/>
<path d="M142.744 147.899L179.983 136.508V223.253L142.744 236.615L107.696 223.253V139.794L142.744 147.899Z" fill="#F8F2F4"/>
<path d="M179.764 136.508L143.183 148.337V236.834L179.764 223.472V136.508Z" fill="url(#paint1_linear)"/>
<path d="M150.412 148.994L146.031 150.675V156.442L150.412 154.721V148.994Z" fill="#ED97B8"/>
<path d="M159.612 146.366L155.231 148.046V153.814L159.612 152.092V146.366Z" fill="#ED97B8"/>
<path d="M168.812 143.299L164.431 144.979V150.747L168.812 149.026V143.299Z" fill="#ED97B8"/>
<path d="M177.136 140.232L172.755 141.913V147.68L177.136 145.959V140.232Z" fill="#ED97B8"/>
<path d="M150.412 165.204L146.031 166.884V172.652L150.412 170.931V165.204Z" fill="#F8BFD5"/>
<path d="M159.612 162.575L155.231 164.256V170.023L159.612 168.302V162.575Z" fill="#F8BFD5"/>
<path d="M168.812 159.509L164.431 161.189V166.957L168.812 165.235V159.509Z" fill="#F8BFD5"/>
<path d="M177.136 156.442L172.755 158.122V163.89L177.136 162.169V156.442Z" fill="#F8BFD5"/>
<path d="M150.412 181.414L146.031 183.094V188.862L150.412 187.141V181.414Z" fill="#F8F2F4"/>
<path d="M159.612 178.785L155.231 180.466V186.233L159.612 184.512V178.785Z" fill="#F8F2F4"/>
<path d="M168.812 175.719L164.431 177.399V183.167L168.812 181.445V175.719Z" fill="#F8F2F4"/>
<path d="M177.136 172.652L172.755 174.332V180.1L177.136 178.379V172.652Z" fill="#F8F2F4"/>
<path d="M150.412 198.938L146.031 200.619V206.386L150.412 204.665V198.938Z" fill="#B7B7E1"/>
<path d="M159.612 196.31L155.231 197.99V203.757L159.612 202.036V196.31Z" fill="#B7B7E1"/>
<path d="M168.812 193.243L164.431 194.923V200.691L168.812 198.97V193.243Z" fill="#B7B7E1"/>
<path d="M177.136 190.176L172.755 191.857V197.624L177.136 195.903V190.176Z" fill="#B7B7E1"/>
<path d="M150.412 215.148L146.031 216.829V222.596L150.412 220.875V215.148Z" fill="#6E6EC4"/>
<path d="M159.612 212.52L155.231 214.2V219.967L159.612 218.246V212.52Z" fill="#6E6EC4"/>
<path d="M168.812 209.453L164.431 211.133V216.901L168.812 215.18V209.453Z" fill="#6E6EC4"/>
<path d="M177.136 206.386L172.755 208.067V213.834L177.136 212.113V206.386Z" fill="#6E6EC4"/>
<path d="M223.533 48.9257L213.319 50.5855L203.043 49.3725L213.319 48L223.533 48.9257Z" fill="#F8F2F4"/>
<path d="M213.196 50.6493L223.656 48.9895V61.6295L213.196 63.5766L203.35 61.6295V49.4683L213.196 50.6493Z" fill="#E6D1D9"/>
</g>
<defs>
<filter id="filter0_d" x="0" y="0" width="368" height="344.442" filterUnits="userSpaceOnUse" color-interpolation-filters="sRGB">
<feFlood flood-opacity="0" result="BackgroundImageFix"/>
<feColorMatrix in="SourceAlpha" type="matrix" values="0 0 0 0 0 0 0 0 0 0 0 0 0 0 0 0 0 0 127 0"/>
<feOffset dx="-8" dy="16"/>
<feGaussianBlur stdDeviation="32"/>
<feColorMatrix type="matrix" values="0 0 0 0 0.956863 0 0 0 0 0.313726 0 0 0 0 0.560784 0 0 0 0.3 0"/>
<feBlend mode="normal" in2="BackgroundImageFix" result="effect1_dropShadow"/>
<feBlend mode="normal" in="SourceGraphic" in2="effect1_dropShadow" result="shape"/>
</filter>
<linearGradient id="paint0_linear" x1="309.423" y1="76.3437" x2="212.245" y2="185.301" gradientUnits="userSpaceOnUse">
<stop stop-color="#F8BFD5"/>
<stop offset="0.515625" stop-color="#F8F2F4"/>
<stop offset="1" stop-color="#E6D1D9"/>
</linearGradient>
<linearGradient id="paint1_linear" x1="206.27" y1="143.956" x2="148.44" y2="208.796" gradientUnits="userSpaceOnUse">
<stop stop-color="#F8BFD5"/>
<stop offset="0.515625" stop-color="#F8F2F4"/>
<stop offset="1" stop-color="#E6D1D9"/>
</linearGradient>
</defs>
</svg>
