<svg width="197" height="211" viewBox="0 0 197 211" fill="none" xmlns="http://www.w3.org/2000/svg">
<g filter="url(#filter0_d)">
<path opacity="0.7" d="M105.128 112.928C106.591 119.612 102.359 126.217 95.6741 127.681C84.0548 133.039 81.2038 132.294 80.9213 118.227C79.458 111.542 83.6907 104.937 90.3752 103.474C97.0597 102.011 103.665 106.243 105.128 112.928Z" fill="url(#paint0_linear)"/>
<path d="M100.253 76.6638L127.395 56.2861C128.877 55.1739 130.943 56.4997 130.55 58.3101L122.973 93.1944C122.812 93.9346 122.247 94.5205 121.513 94.7078L105.262 98.8542C104.136 99.1417 103.002 98.411 102.799 97.2662L99.4842 78.6131C99.3522 77.8705 99.6493 77.1167 100.253 76.6638Z" fill="#E6D1D9"/>
<path d="M80.572 86.4098L94.7473 78.4112C95.9465 77.7345 97.4548 78.4438 97.6986 79.7989L101.275 99.6792C101.483 100.839 102.643 101.567 103.778 101.252L121.203 96.4109C122.456 96.0628 123.703 96.9843 123.738 98.2844L124.144 113.442C124.161 114.065 123.886 114.66 123.401 115.051L107.798 127.651C106.048 129.065 103.658 126.959 104.84 125.045L107.145 121.31C108.042 119.857 106.824 118.021 105.137 118.283L90.8349 120.5C89.8348 120.655 88.8765 120.038 88.603 119.064L84.5136 104.495C84.0467 102.832 81.8325 102.503 80.9025 103.959L78.1459 108.275C76.9155 110.202 73.9376 108.89 74.5282 106.682L79.6227 87.6349C79.7616 87.1155 80.1038 86.674 80.572 86.4098Z" fill="#E6D1D9"/>
<path d="M111.806 84.0893L110.072 77.4032L105.631 80.1152L108.377 89.3799L117.407 89.256L117.822 84.6283L111.806 84.0893Z" fill="#F8F2F4"/>
<path d="M97.2853 76.8647L89.6538 120.181L83.629 100.929L73.3867 114.967L80.0141 86.6911L97.2853 76.8647Z" fill="#F8BFD5"/>
<path d="M80.1233 87.4615L96.7873 77.3628L76.8718 98.772L80.1233 87.4615Z" fill="#ED97B8"/>
<path d="M122.755 93.9884L130.644 53.9622L117.699 94.7889L122.755 93.9884Z" fill="#B7B7E1"/>
</g>
<defs>
<filter id="filter0_d" x="0.84375" y="0.427002" width="195.161" height="210.331" filterUnits="userSpaceOnUse" color-interpolation-filters="sRGB">
<feFlood flood-opacity="0" result="BackgroundImageFix"/>
<feColorMatrix in="SourceAlpha" type="matrix" values="0 0 0 0 0 0 0 0 0 0 0 0 0 0 0 0 0 0 127 0"/>
<feOffset dx="-8" dy="16"/>
<feGaussianBlur stdDeviation="32"/>
<feColorMatrix type="matrix" values="0 0 0 0 0.956863 0 0 0 0 0.313726 0 0 0 0 0.560784 0 0 0 0.3 0"/>
<feBlend mode="normal" in2="BackgroundImageFix" result="effect1_dropShadow"/>
<feBlend mode="normal" in="SourceGraphic" in2="effect1_dropShadow" result="shape"/>
</filter>
<linearGradient id="paint0_linear" x1="86.4205" y1="121.621" x2="116.47" y2="110.43" gradientUnits="userSpaceOnUse">
<stop stop-color="#F4508F"/>
<stop offset="1" stop-color="#6E6EC4" stop-opacity="0"/>
</linearGradient>
</defs>
</svg>
