<svg width="0" height="0" class="hidden">
  <symbol viewBox="0 0 52 50" fill="none" xmlns="http://www.w3.org/2000/svg" id="pencil">
    <path d="M3 3.409l22.892 17.91L48.784 3.41M3 27.847l22.892 17.911 22.892-17.911" stroke="#505C92" stroke-width="8" stroke-linejoin="round"></path>
  </symbol>
  <symbol viewBox="0 0 265 116" fill="none" xmlns="http://www.w3.org/2000/svg" id="arrow_down">
    <rect x="65.243" y="31.324" width="199.313" height="32.541" rx="16.27" fill="#B6B6FB"></rect>
    <path d="M113.776 53.973h-1.785l-4.686-13.314h1.896l3.645 10.804h.074l3.794-10.804h1.896l-4.834 13.314zm7.945-12.254c0 .335-.117.62-.353.855a1.166 1.166 0 0 1-.855.354c-.335 0-.62-.118-.856-.354a1.167 1.167 0 0 1-.353-.855c0-.335.118-.62.353-.855.236-.236.521-.354.856-.354.334 0 .619.118.855.354.236.235.353.52.353.855zm-.353 3.142v9.112h-1.711V44.86h1.711zm12.9 9.26c-.744 0-1.364-.229-1.86-.687-.483-.459-.731-1.097-.744-1.916v-5.095h-1.599v-1.562h1.599v-2.789h1.711v2.79h2.232v1.561h-2.232v4.538c0 .607.118 1.022.353 1.245.236.211.503.316.8.316.136 0 .267-.012.391-.037.136-.037.26-.08.371-.13l.54 1.525c-.447.161-.967.242-1.562.242zm-10.674-9.26h1.637v1.488h.074c.508-1.165 1.556-1.748 3.143-1.748l.353.037v1.785l-.763-.074c-.793 0-1.45.248-1.971.744-.508.483-.762 1.103-.762 1.86v5.02h-1.711V44.86zm21.652 9.112h-1.637v-1.264h-.074c-.26.446-.663.818-1.209 1.115a3.385 3.385 0 0 1-1.673.446c-1.116 0-1.978-.316-2.585-.948-.595-.645-.893-1.556-.893-2.733V44.86h1.711v5.616c.037 1.488.787 2.232 2.25 2.232.682 0 1.252-.273 1.711-.819.459-.558.688-1.22.688-1.99V44.86h1.711v9.112zm3.237-2.79c0 .447.186.819.558 1.116.384.298.831.447 1.339.447.719 0 1.357-.267 1.915-.8.57-.533.855-1.159.855-1.878-.533-.421-1.276-.632-2.231-.632-.694 0-1.277.167-1.748.502-.459.334-.688.75-.688 1.246zm2.213-6.62c1.264 0 2.262.342 2.994 1.024.731.67 1.097 1.593 1.097 2.77v5.616h-1.637v-1.264h-.074c-.707 1.04-1.649 1.561-2.826 1.561-1.004 0-1.847-.297-2.529-.892-.67-.595-1.004-1.339-1.004-2.231 0-.943.353-1.693 1.06-2.25.719-.558 1.673-.837 2.863-.837 1.017 0 1.853.186 2.51.558v-.39c0-.596-.235-1.098-.706-1.507a2.403 2.403 0 0 0-1.655-.632c-.955 0-1.711.403-2.269 1.208l-1.506-.948c.831-1.19 2.058-1.785 3.682-1.785zm7.731-3.904v13.314h-1.711V40.659h1.711zm8.179 13.314h-1.711V40.659h1.711v5.709h6.656v-5.709h1.711v13.314h-1.711v-6.006h-6.656v6.006zm11.712-2.79c0 .447.186.819.558 1.116.385.298.831.447 1.339.447.719 0 1.357-.267 1.915-.8.571-.533.856-1.159.856-1.878-.533-.421-1.277-.632-2.232-.632-.694 0-1.277.167-1.748.502-.458.334-.688.75-.688 1.246zm2.213-6.62c1.265 0 2.263.342 2.994 1.024.731.67 1.097 1.593 1.097 2.77v5.616h-1.636v-1.264h-.075c-.706 1.04-1.648 1.561-2.826 1.561-1.004 0-1.847-.297-2.529-.892-.669-.595-1.004-1.339-1.004-2.231 0-.943.353-1.693 1.06-2.25.719-.558 1.673-.837 2.863-.837 1.017 0 1.854.186 2.511.558v-.39c0-.596-.236-1.098-.707-1.507a2.403 2.403 0 0 0-1.655-.632c-.954 0-1.711.403-2.268 1.208l-1.507-.948c.831-1.19 2.058-1.785 3.682-1.785zm10.095 9.707c-1.351 0-2.473-.458-3.366-1.376-.88-.942-1.32-2.1-1.32-3.477 0-1.4.44-2.56 1.32-3.477.893-.917 2.015-1.376 3.366-1.376.93 0 1.742.236 2.436.706.694.46 1.215 1.098 1.562 1.916l-1.562.65c-.484-1.14-1.333-1.71-2.548-1.71-.781 0-1.456.316-2.026.948-.558.633-.837 1.413-.837 2.343 0 .93.279 1.71.837 2.343.57.632 1.245.949 2.026.949 1.252 0 2.133-.57 2.641-1.711l1.525.65a4.12 4.12 0 0 1-1.581 1.934c-.707.46-1.531.688-2.473.688zm13.564-.297h-2.064l-2.845-4.295-1.395 1.376v2.919h-1.71V40.659h1.71v8.2l3.943-3.998h2.194v.075l-3.552 3.533 3.719 5.43v.074zm2.039-2.79c0 .447.186.819.558 1.116.384.298.83.447 1.338.447.719 0 1.358-.267 1.916-.8.57-.533.855-1.159.855-1.878-.533-.421-1.277-.632-2.231-.632-.695 0-1.277.167-1.748.502-.459.334-.688.75-.688 1.246zm2.213-6.62c1.264 0 2.262.342 2.993 1.024.732.67 1.097 1.593 1.097 2.77v5.616h-1.636v-1.264h-.074c-.707 1.04-1.649 1.561-2.827 1.561-1.004 0-1.847-.297-2.529-.892-.669-.595-1.004-1.339-1.004-2.231 0-.943.354-1.693 1.06-2.25.719-.558 1.674-.837 2.864-.837 1.016 0 1.853.186 2.51.558v-.39c0-.596-.236-1.098-.707-1.507a2.402 2.402 0 0 0-1.655-.632c-.954 0-1.71.403-2.268 1.208l-1.506-.948c.83-1.19 2.058-1.785 3.682-1.785zm9.446 9.559c-.744 0-1.364-.23-1.86-.688-.483-.459-.731-1.097-.744-1.916v-5.095h-1.599v-1.562h1.599v-2.789h1.711v2.79h2.231v1.561h-2.231v4.538c0 .607.118 1.022.353 1.245.236.211.502.316.8.316.136 0 .267-.012.39-.037.137-.037.261-.08.372-.13l.54 1.525c-.447.161-.967.242-1.562.242zm3.057-13.463h1.71v4.202l-.074 1.265h.074c.261-.446.657-.818 1.19-1.116a3.494 3.494 0 0 1 1.693-.446c1.115 0 1.971.322 2.566.967.607.632.911 1.537.911 2.715v5.727h-1.711V48.58c0-1.636-.725-2.454-2.176-2.454-.694 0-1.283.291-1.766.874-.471.57-.707 1.24-.707 2.008v4.965h-1.71V40.659zm9.557 8.758c0-1.4.44-2.56 1.32-3.477.893-.917 2.015-1.376 3.366-1.376s2.467.459 3.347 1.376c.893.917 1.339 2.076 1.339 3.477 0 1.413-.446 2.572-1.339 3.477-.88.918-1.996 1.376-3.347 1.376s-2.473-.458-3.366-1.376c-.88-.917-1.32-2.076-1.32-3.477zm1.711 0c0 .98.285 1.773.855 2.38.571.608 1.277.912 2.12.912.843 0 1.55-.304 2.12-.912.57-.607.855-1.4.855-2.38 0-.967-.285-1.754-.855-2.361-.583-.62-1.289-.93-2.12-.93-.83 0-1.537.31-2.12.93-.57.607-.855 1.394-.855 2.361zm9.033-4.556h1.637v1.265h.074c.26-.446.657-.818 1.19-1.116a3.493 3.493 0 0 1 1.692-.446c1.116 0 1.971.322 2.566.967.608.632.912 1.537.912 2.715v5.727h-1.711v-5.616c-.037-1.487-.787-2.231-2.25-2.231-.682 0-1.252.279-1.711.837-.459.545-.688 1.202-.688 1.97v5.04h-1.711V44.86z"
      fill="#132653"></path>
    <g filter="url(#filter0_d)">
      <path d="M102.433 55.726l-32.566 13.09L42 55.727l27.867-7.301 32.566 7.3z" fill="#F8BFD5"></path>
      <path d="M69.32 63.82l-16.196-6.915a2.324 2.324 0 0 1-1.412-2.138V38.995a2.324 2.324 0 0 1 2.891-2.254l15.046 3.784c.34.085.695.093 1.038.022l19.13-3.955a2.324 2.324 0 0 1 2.795 2.276v15.485c0 .976-.61 1.849-1.526 2.183L71.03 63.865a2.325 2.325 0 0 1-1.71-.046z"
        fill="#F8F2F4"></path>
      <path d="M69.95 45.188L51.714 40.87V56.2l18.238 7.874V45.188z" fill="#E6D1D9"></path>
      <path d="M82.684 29l13.205 8.403c.853.543.654 1.84-.323 2.103l-29.177 7.84-18.425-5.237a1.162 1.162 0 0 1-.44-2l12.603-10.828c.21-.181.48-.281.757-.281h21.8z" fill="url(#paint0_linear)"></path>
      <path d="M82.684 29l13.205 8.403c.853.543.654 1.84-.323 2.103l-29.177 7.84M82.685 29L66.388 47.346M82.685 29h-21.8c-.279 0-.547.1-.758.28L47.524 40.11a1.162 1.162 0 0 0 .44 2l18.425 5.236" stroke="#6E6EC4" stroke-width=".581"></path>
      <path d="M80.85 48.64l6.907-2.374v11.547l-6.907 2.482V48.64z" fill="#E6D1D9"></path>
      <path d="M59.482 46.967l-2.374-.701v5.507l2.374.752v-5.558zm3.022.864l-2.374-.7v5.506l2.374.752v-5.558z" fill="#F8F2F4"></path>
    </g>
    <defs>
      <filter id="filter0_d" x=".162" y=".817" width="134.812" height="114.486" filterUnits="userSpaceOnUse" color-interpolation-filters="sRGB">
        <feFlood flood-opacity="0" result="BackgroundImageFix"></feFlood>
        <feColorMatrix in="SourceAlpha" values="0 0 0 0 0 0 0 0 0 0 0 0 0 0 0 0 0 0 127 0"></feColorMatrix>
        <feOffset dx="-4.649" dy="9.297"></feOffset>
        <feGaussianBlur stdDeviation="18.595"></feGaussianBlur>
        <feColorMatrix values="0 0 0 0 0.956863 0 0 0 0 0.313726 0 0 0 0 0.560784 0 0 0 0.3 0"></feColorMatrix>
        <feBlend in2="BackgroundImageFix" result="effect1_dropShadow"></feBlend>
        <feBlend in="SourceGraphic" in2="effect1_dropShadow" result="shape"></feBlend>
      </filter>
      <linearGradient id="paint0_linear" x1="72.001" y1="29" x2="72.001" y2="47.346" gradientUnits="userSpaceOnUse">
        <stop stop-color="#B7B7E1"></stop>
        <stop offset="1" stop-color="#6E6EC4"></stop>
      </linearGradient>
    </defs>
  </symbol>
  <symbol viewBox="0 0 98 24" xmlns="http://www.w3.org/2000/svg" id="logo">
    <path d="M45.293 12.107c0-.494-.295-.965-.785-1.028-1.949-.253-3.78 1.499-6.063 2.669-.436.223-.73.661-.73 1.151v5.486c0 .679-.553 1.228-1.232 1.223l-2.124-.015a1.223 1.223 0 0 1-1.215-1.223V2.38c0-.678.553-1.228 1.232-1.223l2.124.015a1.223 1.223 0 0 1 1.215 1.223v6.873c0 .9.87 1.372 1.536.766 1.198-1.09 2.638-2.486 4.531-2.703.776-.089 1.51-.657 1.51-1.437V2.349c0-.679.553-1.228 1.232-1.223l2.208.015c.673.004 1.216.55 1.216 1.223v17.99c0 .678-.553 1.227-1.232 1.223l-2.208-.015a1.223 1.223 0 0 1-1.215-1.223v-8.232zm13.975.196c.015.057.025.115.032.173l.392 3.474a.066.066 0 0 0 .13.001l.444-3.494c.01-.084.03-.167.058-.247l3.553-10.24c.17-.491.634-.821 1.155-.821h1.055c.523 0 .989.333 1.158.83l3.5 10.294c.026.077.044.156.055.237l.442 3.427a.082.082 0 0 0 .164-.001l.428-3.606 2.487-10.247a1.223 1.223 0 0 1 1.189-.934h1.831c.819 0 1.406.788 1.173 1.572l-5.398 18.136a1.223 1.223 0 0 1-1.173.874h-1.142c-.517 0-.979-.325-1.153-.813l-3.64-10.208a1.23 1.23 0 0 1-.055-.21l-.49-2.945a.12.12 0 0 0-.238 0l-.491 2.974c-.012.072-.03.142-.054.21l-3.613 10.178a1.223 1.223 0 0 1-1.153.814h-1.286a1.224 1.224 0 0 1-1.173-.876L52.083 2.719a1.223 1.223 0 0 1 1.173-1.57H55.4c.556 0 1.042.375 1.183.913l2.685 10.241zM82.638.992a1.223 1.223 0 0 1 1.688-.737l.86.406c.554.261.829.893.643 1.477l-6.68 21.009a1.223 1.223 0 0 1-1.73.715l-.831-.432a1.223 1.223 0 0 1-.602-1.456L82.638.992zm14.475 8.595c.455.19.751.635.751 1.129v.627c0 .444-.24.852-.627 1.068l-11.643 6.494-.522.304c-.958.557-2.104-.345-1.788-1.407l.378-1.27c.09-.302.294-.558.568-.714l6.53-3.715a.996.996 0 0 1 .153-.07c.902-.329.868-1.617-.05-1.898l-3.638-1.273a1.223 1.223 0 0 1-.763-1.522l.211-.67a1.223 1.223 0 0 1 1.639-.762l8.8 3.679zM.701 9.759A1.223 1.223 0 0 0 0 10.865v.475c0 .428.224.825.59 1.047l9.58 5.789.428.198c1.051.485 2.126-.627 1.605-1.661l-.393-.782a1.224 1.224 0 0 0-.45-.49l-5.465-3.369a.907.907 0 0 0-.142-.071c-.787-.31-.752-1.435.05-1.702l5.314-2.193c.248-.103.456-.284.591-.516l.447-.77c.604-1.038-.493-2.234-1.58-1.721L.702 9.759zM13.957 6.13c-.428 1.324-.642 2.823-.642 4.497 0 1.576.195 3.017.584 4.32.389 1.305.972 2.424 1.75 3.358a8.29 8.29 0 0 0 2.947 2.19c1.186.506 2.567.759 4.142.759 1.459 0 2.772-.234 3.939-.701a8.287 8.287 0 0 0 2.975-2.073c.22-.246.426-.508.618-.784.515-.741-.123-1.664-1.016-1.794a9.17 9.17 0 0 1-1.696-.412c-.444-.154-.935.028-1.232.392-.855 1.05-2.051 1.576-3.588 1.576-.836 0-1.566-.165-2.188-.496a4.1 4.1 0 0 1-1.488-1.401c-.389-.604-.68-1.324-.875-2.16a12.302 12.302 0 0 1-.292-2.774c0-2.375.428-4.107 1.284-5.197.856-1.09 2.042-1.635 3.56-1.635.874 0 1.613.175 2.216.526a3.96 3.96 0 0 1 1.517 1.43c.409.604.7 1.324.875 2.16.175.838.263 1.743.263 2.716 0 .236-.004.465-.012.688-.023.649.419 1.245 1.067 1.292.892.065 1.752.027 2.571-.091.522-.076.91-.513.934-1.039.014-.278.02-.562.02-.85 0-1.577-.204-3.017-.612-4.321-.39-1.304-.983-2.423-1.78-3.357-.778-.935-1.76-1.655-2.946-2.16C25.685.262 24.314 0 22.738 0c-1.478 0-2.8.243-3.967.73a7.833 7.833 0 0 0-2.976 2.073c-.797.895-1.41 2.004-1.838 3.328z"></path>
    <path d="M24.68 12.255c4.487 2.434 10.775.04 12.944-2.032.131-.125.363-.048.38.132l.203 2.069a.207.207 0 0 1-.08.182c-7.118 5.422-13.684 1.543-17.058-2.076-.168-.18.097-.443.297-.301.765.54 1.839 1.227 3.314 2.026z"></path>
  </symbol>
</svg>