<svg width="943" height="447" viewBox="0 0 943 447" fill="none" xmlns="http://www.w3.org/2000/svg">
<g filter="url(#filter0_d)">
<path d="M887 190.502C887 253.809 826.903 386.193 707.129 301.279C676.773 279.758 607.679 301.382 607.679 238.075C607.679 174.767 665.116 145.874 728.424 145.874C791.731 145.874 887 127.194 887 190.502Z" fill="#6E6EC4"/>
<ellipse cx="761.592" cy="188.152" rx="78.4308" ry="17.7157" fill="#DCEFE9"/>
<path d="M684.157 192.037C679.179 212.969 662.845 223.574 647.673 219.966C632.5 216.358 631.003 232.707 635.98 211.775C640.958 190.843 658.289 184.25 673.461 187.858C688.634 191.465 689.134 171.105 684.157 192.037Z" fill="#DCEFE9"/>
<path d="M689.883 83.5219C720.391 73.5981 742.331 68.8905 764.331 69.0019C786.349 69.1135 808.73 74.053 840.132 83.9162C841.774 84.4318 842.903 85.9677 842.903 87.7034V165.004C842.903 167.671 840.266 169.668 837.594 168.86C808.858 160.162 787.023 155.632 765.052 155.546C743.075 155.461 721.234 159.822 692.481 168.511C689.801 169.321 687.162 167.318 687.162 164.651V87.289C687.162 85.5682 688.269 84.047 689.883 83.5219Z" fill="url(#paint0_linear)" stroke="#DCEFE9" stroke-width="8" stroke-linejoin="round"/>
<path d="M632.548 125.467C636.485 115.396 640.621 108.712 645.734 103.76C650.843 98.8102 657.197 95.3286 666.024 92.0934C668.265 91.2721 670.883 92.9522 670.883 95.7369V172.788C670.883 174.291 670.002 175.766 668.503 176.555C654.829 183.757 647.838 190.857 638.994 201.043C636.607 203.792 632.294 202.179 632.294 198.542V126.848C632.294 126.363 632.384 125.888 632.548 125.467Z" fill="url(#paint1_linear)" stroke="#DCEFE9" stroke-width="8" stroke-linejoin="round"/>
<path d="M703.073 188.566C721.797 181.47 736.75 177.952 751.872 177.94C767 177.929 782.454 181.427 802.18 188.603C803.14 188.952 803.677 189.992 803.397 190.992L795.523 219.151C795.215 220.25 794.039 220.877 792.94 220.51C774.509 214.348 763.6 211.372 752.606 211.503C741.641 211.633 730.727 214.856 712.329 220.611C711.247 220.95 710.102 220.327 709.799 219.242L701.885 190.942C701.608 189.951 702.131 188.923 703.073 188.566Z" fill="#6E6EC4" stroke="#131353" stroke-width="4"/>
<path d="M795.163 191.283C789.431 189.047 772.866 182.993 752.459 183.543C732.052 184.094 715.612 189.506 709.944 191.283" stroke="#B7B7E1" stroke-width="8" stroke-dasharray="11 11"/>
<path d="M794.974 199.195C789.242 196.959 772.677 190.905 752.27 191.455C731.863 192.005 715.424 197.418 709.755 199.195" stroke="#B7B7E1" stroke-width="8" stroke-dasharray="11 11"/>
<path d="M775.695 204.32L779.361 191.318C779.606 190.516 780.461 189.014 781.927 189.426C783.024 189.735 782.822 190.768 782.395 191.605C782.819 191.11 783.437 190.764 784.127 191.318C785.153 192.144 784.554 194.185 784.127 195.102C784.615 194.758 785.813 194.277 786.693 195.102C787.573 195.928 787.059 197.396 786.693 198.026C786.937 197.625 787.646 197.063 788.526 198.026C789.405 198.989 787.67 209.709 786.693 213.436L775.695 204.32Z" fill="#ED97B8"/>
<path d="M727.89 204.83L724.655 191.74C724.438 190.931 723.637 189.408 722.176 189.783C721.083 190.063 721.252 191.101 721.649 191.949C721.245 191.443 720.644 191.081 719.946 191.618C718.908 192.417 719.438 194.472 719.834 195.4C719.361 195.044 718.192 194.532 717.298 195.335C716.404 196.138 716.868 197.618 717.211 198.258C716.982 197.85 716.298 197.27 715.4 198.211C714.502 199.151 715.897 209.911 716.752 213.661L727.89 204.83Z" fill="#ED97B8"/>
<path d="M727.65 133.879C725.589 118.829 737.285 105.421 752.476 105.421V105.421C767.666 105.421 779.362 118.829 777.301 133.879L773.377 162.523C771.946 172.97 763.02 180.756 752.476 180.756V180.756C741.931 180.756 733.005 172.97 731.574 162.523L727.65 133.879Z" fill="#ED97B8"/>
<path d="M723.553 145.783C723.113 142.633 725.559 139.821 728.74 139.821V139.821C731.921 139.821 734.367 142.633 733.927 145.783L733.131 151.481C732.825 153.671 730.951 155.301 728.74 155.301V155.301C726.528 155.301 724.655 153.671 724.349 151.481L723.553 145.783Z" fill="#ED97B8"/>
<path d="M770.337 145.783C769.897 142.633 772.343 139.821 775.524 139.821V139.821C778.704 139.821 781.151 142.633 780.71 145.783L779.914 151.481C779.608 153.671 777.735 155.301 775.524 155.301V155.301C773.312 155.301 771.439 153.671 771.133 151.481L770.337 145.783Z" fill="#ED97B8"/>
<path d="M801.073 256.913C805.597 277.292 784.974 294.127 765.913 285.614V285.614C759.659 282.821 752.541 282.672 746.175 285.201L744.661 285.802C722.832 294.475 700.195 275.192 705.285 252.262L710.92 226.88C715.264 207.312 732.618 193.388 752.663 193.388L753.735 193.388C773.153 193.388 789.965 206.876 794.173 225.833L801.073 256.913Z" fill="url(#paint2_linear)"/>
<path d="M753.06 96.01C752.536 94.3399 750.351 94.3399 749.828 96.01L747.832 102.375C747.387 103.795 745.646 104.079 744.833 102.864L741.191 97.4174C740.236 95.9883 738.148 96.6846 738.103 98.4473L737.931 105.166C737.893 106.664 736.306 107.49 735.199 106.588L730.233 102.544C728.931 101.483 727.125 102.814 727.563 104.513L729.231 110.987C729.603 112.431 728.312 113.726 727.008 113.218L723.293 110.474C721.759 109.876 720.397 111.722 721.278 113.206L722.504 119.323C722.617 119.512 722.692 119.71 722.735 119.91C722.735 119.91 727.563 149.625 753.06 148.593C778.557 147.561 780.152 119.91 780.152 119.91C780.195 119.71 780.271 119.512 780.383 119.323L781.609 113.667C782.491 112.184 781.128 110.337 779.594 110.936L775.88 113.218C774.576 113.726 773.285 112.431 773.657 110.987L775.325 104.513C775.762 102.814 773.957 101.483 772.654 102.544L767.689 106.588C766.581 107.49 764.995 106.664 764.956 105.166L764.785 98.4473C764.74 96.6846 762.652 95.9883 761.696 97.4174L758.054 102.864C757.242 104.079 755.5 103.795 755.055 102.375L753.06 96.01Z" fill="url(#paint3_linear)"/>
<path d="M731.161 153.16C730.154 145.596 725.041 128.794 723.294 121.338C723.294 121.338 727.538 148.593 751.979 148.617C776.421 148.641 780.111 121.338 780.111 121.338L773.502 153.16C773.502 166.48 764.48 172.5 751.979 172.5C739.478 172.5 732.956 166.652 731.161 153.16Z" fill="url(#paint4_linear)"/>
<path d="M744.736 178.692H760.56V191.764C754.381 195.352 750.916 194.796 744.736 191.764V178.692Z" fill="#ED97B8"/>
<path d="M744.908 188.324C743.205 194.27 762.344 195.926 760.216 188.324L764 194.033C758.152 199.676 748.581 199.455 741.984 194.033L744.908 188.324Z" fill="#FDEDF3"/>
<path d="M869.557 260.502C843.052 320.081 777.129 359.272 714.266 306.454C699.685 294.203 633.278 298.56 616.061 267.525C598.844 236.489 691.045 199.563 792.081 267.525C893.117 335.486 873.181 246.683 869.557 260.502Z" fill="url(#paint5_linear)"/>
<path d="M717.477 198.678C717.477 199.783 717.477 200.888 717.477 201.993" stroke="#ED97B8" stroke-width="7" stroke-linecap="round" stroke-linejoin="round"/>
<path d="M717.477 198.678C717.477 200.718 717.477 202.758 717.477 204.799" stroke="#F8BFD5" stroke-width="3" stroke-linecap="round" stroke-linejoin="round"/>
<path d="M779.448 197.658C779.474 196.319 779.705 195.546 780.355 194.399C780.559 194.038 780.954 193.504 780.978 193.067C781.024 192.234 781.241 191.768 781.488 191.027" stroke="#F8BFD5" stroke-width="2" stroke-linecap="round" stroke-linejoin="round"/>
<path d="M783.017 197.658C783.223 196.873 783.564 196.248 784.037 195.618" stroke="#F8BFD5" stroke-width="2" stroke-linecap="round" stroke-linejoin="round"/>
<path d="M783.018 193.322C781.665 192.265 782.412 191.904 783.018 192.812" stroke="#F8BFD5" stroke-width="2" stroke-linecap="round" stroke-linejoin="round"/>
<path d="M785.823 196.893C784.771 196.677 784.542 196.638 785.568 196.638" stroke="#F8BFD5" stroke-width="2" stroke-linecap="round" stroke-linejoin="round"/>
<path d="M788.373 200.208C788.063 199.782 787.805 199.159 787.353 198.933" stroke="#F8BFD5" stroke-width="2" stroke-linecap="round" stroke-linejoin="round"/>
<path d="M718.752 196.638C718.265 196.638 717.452 196.431 717.221 196.893" stroke="#F8BFD5" stroke-width="2" stroke-linecap="round" stroke-linejoin="round"/>
<path d="M723.597 191.282C722.697 191.26 722.633 191.055 722.067 190.772" stroke="#F8BFD5" stroke-width="2" stroke-linecap="round" stroke-linejoin="round"/>
<path d="M719.772 194.853C719.772 193.849 719.505 193.322 720.537 193.322" stroke="#F8BFD5" stroke-width="2" stroke-linecap="round" stroke-linejoin="round"/>
<path d="M779.809 198.942C779.822 198.102 779.451 195.002 780.613 194.743C781.391 194.571 781.417 194.155 781.417 193.475" stroke="url(#paint6_linear)" stroke-width="2" stroke-linecap="round" stroke-linejoin="round"/>
<path d="M783.346 199.585C783.686 197.959 783.993 196.683 784.632 195.404" stroke="url(#paint7_linear)" stroke-width="2" stroke-linecap="round" stroke-linejoin="round"/>
<path d="M719.029 202.801C717.523 201.869 716.134 201.137 716.134 199.263" stroke="url(#paint8_linear)" stroke-width="2" stroke-linecap="round" stroke-linejoin="round"/>
<path d="M720.958 202.801C720.958 201.258 721.29 199.595 720.118 198.424C719.431 197.736 719.029 197.326 719.029 196.369" stroke="url(#paint9_linear)" stroke-width="2" stroke-linecap="round" stroke-linejoin="round"/>
<path d="M723.531 199.263C723.471 196.695 722.289 195.171 721.28 193.153" stroke="url(#paint10_linear)" stroke-width="2" stroke-linecap="round" stroke-linejoin="round"/>
<path d="M785.275 204.087C785.275 202.008 785.361 200.378 786.24 198.62" stroke="url(#paint11_linear)" stroke-width="2" stroke-linecap="round" stroke-linejoin="round"/>
<path d="M759.871 190.259C759.871 187.028 759.549 183.845 759.549 180.629C759.549 179.142 759.214 179.406 760.264 179.325C761.632 179.22 763.366 177.525 764.498 176.77C765.148 176.337 766.026 175.131 766.624 174.501C768.496 172.531 770.444 170.616 771.377 167.819C771.97 166.039 772.413 164.177 772.413 162.281" stroke="url(#paint12_linear)" stroke-width="2" stroke-linecap="round" stroke-linejoin="round"/>
<path d="M727.39 152.633C725.561 151.645 724.817 151.072 724.817 149.024C724.817 147.448 724.737 145.845 724.835 144.272C724.938 142.618 724.788 141.699 726.425 141.699" stroke="url(#paint13_linear)" stroke-width="2" stroke-linecap="round" stroke-linejoin="round"/>
<path d="M778.201 151.668C778.529 149.499 779.029 146.484 778.201 144.343C777.855 143.446 776.915 143.497 776.915 142.664" stroke="url(#paint14_linear)" stroke-width="2" stroke-linecap="round" stroke-linejoin="round"/>
<path d="M761.156 177.717C763.557 176.335 764.837 174.896 766.623 172.911C767.515 171.92 768.863 171.335 769.66 170.32C770.659 169.05 770.623 166.619 770.804 165.175C770.969 163.853 771.467 162.264 772.09 161.173C773.127 159.358 773.055 157.991 773.055 155.849" stroke="url(#paint15_linear)" stroke-width="2" stroke-linecap="round" stroke-linejoin="round"/>
<path d="M725.139 149.739C725.139 148.501 724.208 141.377 726.425 141.377" stroke="url(#paint16_linear)" stroke-width="2" stroke-linecap="round" stroke-linejoin="round"/>
<path d="M779.487 148.774C779.487 147.202 780.107 144.095 779.165 142.735C778.733 142.11 777.26 142.044 776.593 141.377" stroke="url(#paint17_linear)" stroke-width="2" stroke-linecap="round" stroke-linejoin="round"/>
<path d="M746.364 189.294C746.364 186.501 746.364 183.708 746.364 180.915C746.364 178.41 744.817 179.74 743.47 177.967C741.51 175.388 735.751 174.388 735.751 170.32" stroke="url(#paint18_linear)" stroke-width="2" stroke-linecap="round" stroke-linejoin="round"/>
<path d="M723.853 117.902C723.853 114.951 724.274 114.774 727.283 115.15C728.087 115.251 731.579 116.465 731.821 115.043C732.339 111.993 730.736 109.862 734.912 109.862C736.287 109.862 737.062 109.997 738.128 110.97C738.838 111.618 739.963 112.417 740.236 110.916C740.354 110.264 740.221 107.325 741.04 107.325C744.038 107.325 746.716 109.248 749.58 109.862" stroke="url(#paint19_linear)" stroke-width="2" stroke-linecap="round" stroke-linejoin="round"/>
<path d="M749.901 106.967C749.909 106.108 749.53 100.328 752.295 102.429C753.97 103.703 753.263 107.056 755.046 108.182C757.178 109.529 760.997 104.148 761.014 104.162C762.394 105.345 762.775 109.438 763.265 111.112C763.731 112.708 766.047 112.158 767.41 112.095C769.57 111.995 769.989 110.864 770.233 113.221C770.444 115.267 770.953 117.212 771.448 119.188" stroke="url(#paint20_linear)" stroke-width="2" stroke-linecap="round" stroke-linejoin="round"/>
<path d="M738.967 117.58C739.73 114.11 742.475 113.635 745.703 113.739C749.349 113.856 751.522 116.44 754.85 117.223C756.447 117.598 755.919 116.462 756.726 115.722C758.312 114.268 761.788 118.428 762.765 119.188" stroke="url(#paint21_linear)" stroke-width="2" stroke-linecap="round" stroke-linejoin="round"/>
</g>
<g filter="url(#filter1_d)">
<circle r="10.7442" transform="matrix(-1 0 0 1 101.31 253.334)" fill="#6CBAA2"/>
<circle r="24.2637" transform="matrix(-1 0 0 1 101.311 253.334)" stroke="#6CBAA2" stroke-width="4"/>
<path d="M88.232 198.718C88.232 250.145 182.151 344.66 233.578 344.66C285.004 344.66 352.062 312.819 352.062 261.392C352.062 209.965 285.004 158.427 233.578 158.427C182.151 158.427 88.232 147.291 88.232 198.718Z" fill="#6E6EC4"/>
<path d="M180.698 124.458C180.698 144.015 180.698 191.116 284.223 191.116C303.858 191.116 319.776 175.261 319.776 155.704C319.776 136.146 277.426 97.8985 216.252 89.0455C196.616 89.0455 180.698 104.9 180.698 124.458Z" fill="#DCEFE9"/>
<path d="M182.427 59.8644L207.416 68.3431C210.662 69.4445 212.845 72.4913 212.845 75.9189V138.094C212.845 143.608 207.398 147.468 202.195 145.642L177.207 136.869C174.002 135.744 171.857 132.717 171.857 129.32V67.4402C171.857 61.9617 177.239 58.1041 182.427 59.8644Z" fill="#6CBAA2" stroke="#DCEFE9"/>
<path d="M173.614 132.135V63.1394C173.614 61.7777 174.945 60.8142 176.238 61.2394L183.305 63.5624C184.126 63.8322 184.68 64.5985 184.68 65.4624V65.7817C184.68 66.6301 185.216 67.3863 186.016 67.6681L195.849 71.1312C196.7 71.431 197.592 70.7994 197.592 69.897C197.592 69.0113 198.453 68.3815 199.297 68.6503L209.11 71.7751C209.94 72.0393 210.503 72.81 210.503 73.6808V143.093C210.503 144.458 209.166 145.422 207.871 144.991L174.981 134.032C174.164 133.76 173.614 132.996 173.614 132.135Z" fill="#6CBAA2" stroke="#DCEFE9"/>
<path d="M191.18 74.43L207.576 79.5118V82.0422L191.18 76.6665V74.43Z" fill="#6CBAA2" stroke="#DCEFE9"/>
<path d="M191.18 118.932L207.576 124.405V127.13L191.18 121.341V118.932Z" fill="#6CBAA2" stroke="#DCEFE9"/>
<path d="M177.713 74.43L207.576 84.1671V95.51L177.713 85.4695V74.43Z" fill="#6CBAA2" stroke="#DCEFE9"/>
<path d="M177.713 118.932L207.576 128.669V140.012L177.713 129.972V118.932Z" fill="#6CBAA2" stroke="#DCEFE9"/>
<g filter="url(#filter2_d)">
<path d="M193.866 104.103L202.163 107.132C202.952 107.42 203.477 108.171 203.477 109.011V116.006C203.477 117.413 202.062 118.381 200.751 117.87L192.454 114.636C191.686 114.337 191.18 113.597 191.18 112.773V105.981C191.18 104.592 192.561 103.626 193.866 104.103Z" fill="#6CBAA2"/>
<path d="M193.866 104.103L202.163 107.132C202.952 107.42 203.477 108.171 203.477 109.011V116.006C203.477 117.413 202.062 118.381 200.751 117.87L192.454 114.636C191.686 114.337 191.18 113.597 191.18 112.773V105.981C191.18 104.592 192.561 103.626 193.866 104.103Z" stroke="#DCEFE9"/>
</g>
<g filter="url(#filter3_d)">
<path d="M178.056 98.8328L186.353 101.862C187.142 102.15 187.667 102.901 187.667 103.741V110.736C187.667 112.143 186.252 113.111 184.941 112.6L176.644 109.366C175.876 109.067 175.37 108.327 175.37 107.503V100.711C175.37 99.3225 176.752 98.3564 178.056 98.8328Z" fill="#6CBAA2"/>
<path d="M178.056 98.8328L186.353 101.862C187.142 102.15 187.667 102.901 187.667 103.741V110.736C187.667 112.143 186.252 113.111 184.941 112.6L176.644 109.366C175.876 109.067 175.37 108.327 175.37 107.503V100.711C175.37 99.3225 176.752 98.3564 178.056 98.8328Z" stroke="#DCEFE9"/>
</g>
<g filter="url(#filter4_d)">
<path d="M162.246 91.8062L170.543 94.8354C171.332 95.1235 171.857 95.874 171.857 96.7141V103.709C171.857 105.117 170.442 106.084 169.131 105.573L160.834 102.339C160.066 102.04 159.56 101.3 159.56 100.476V93.6849C159.56 92.2959 160.941 91.3298 162.246 91.8062Z" fill="#6CBAA2"/>
<path d="M162.246 91.8062L170.543 94.8354C171.332 95.1235 171.857 95.874 171.857 96.7141V103.709C171.857 105.117 170.442 106.084 169.131 105.573L160.834 102.339C160.066 102.04 159.56 101.3 159.56 100.476V93.6849C159.56 92.2959 160.941 91.3298 162.246 91.8062Z" stroke="#DCEFE9"/>
</g>
<path d="M195.279 94.3388L207.576 98.8V103.122L195.279 98.3599V94.3388Z" fill="#6CBAA2" stroke="#DCEFE9"/>
<path d="M235.8 58.6086L260.789 67.0873C264.035 68.1887 266.218 71.2355 266.218 74.6631V136.838C266.218 142.352 260.771 146.213 255.568 144.386L230.579 135.613C227.374 134.488 225.229 131.461 225.229 128.065V66.1844C225.229 60.7059 230.612 56.8483 235.8 58.6086Z" fill="#6CBAA2" stroke="#DCEFE9"/>
<path d="M226.987 130.879V61.8836C226.987 60.522 228.318 59.5585 229.611 59.9837L236.678 62.3067C237.499 62.5765 238.054 63.3428 238.054 64.2067V64.526C238.054 65.3744 238.589 66.1306 239.389 66.4124L249.222 69.8755C250.073 70.1753 250.965 69.5437 250.965 68.6413C250.965 67.7556 251.827 67.1258 252.671 67.3946L262.484 70.5194C263.313 70.7836 263.877 71.5543 263.877 72.4251V141.837C263.877 143.202 262.54 144.166 261.245 143.735L228.355 132.776C227.538 132.504 226.987 131.74 226.987 130.879Z" fill="#6CBAA2" stroke="#DCEFE9"/>
<path d="M244.553 73.1742L260.948 78.256V80.7864L244.553 75.4106V73.1742Z" fill="#6CBAA2" stroke="#DCEFE9"/>
<path d="M244.553 113.281L260.948 118.754V121.479L244.553 115.689V113.281Z" fill="#6CBAA2" stroke="#DCEFE9"/>
<path d="M231.085 73.1742L260.948 82.9113V94.2541L231.085 84.2136V73.1742Z" fill="#6CBAA2" stroke="#DCEFE9"/>
<path d="M231.332 95.2083L261.195 104.945V116.288L231.332 106.248V95.2083Z" fill="#6CBAA2" stroke="#DCEFE9"/>
<path d="M248.652 93.083L260.948 97.5443V101.866L248.652 97.1042V93.083Z" fill="#6CBAA2" stroke="#DCEFE9"/>
<path d="M292.94 101.306L317.929 109.785C321.175 110.886 323.358 113.933 323.358 117.361V179.536C323.358 185.05 317.911 188.91 312.708 187.084L287.719 178.311C284.514 177.186 282.369 174.159 282.369 170.762V108.882C282.369 103.404 287.752 99.5461 292.94 101.306Z" fill="#6CBAA2" stroke="#DCEFE9"/>
<path d="M284.126 173.577V104.581C284.126 103.22 285.457 102.256 286.751 102.681L293.818 105.005C294.639 105.274 295.193 106.041 295.193 106.905V107.224C295.193 108.072 295.729 108.828 296.529 109.11L306.362 112.573C307.213 112.873 308.105 112.242 308.105 111.339C308.105 110.453 308.966 109.824 309.81 110.092L319.623 113.217C320.453 113.481 321.016 114.252 321.016 115.123V184.535C321.016 185.9 319.679 186.864 318.384 186.433L285.494 175.474C284.677 175.202 284.126 174.438 284.126 173.577Z" fill="#6CBAA2" stroke="#DCEFE9"/>
<path d="M301.693 115.872L318.089 120.954V123.484L301.693 118.109V115.872Z" fill="#6CBAA2" stroke="#DCEFE9"/>
<path d="M301.693 155.979L318.089 161.451V164.176L301.693 158.387V155.979Z" fill="#6CBAA2" stroke="#DCEFE9"/>
<path d="M288.225 115.872L318.089 125.609V136.952L288.225 126.912V115.872Z" fill="#6CBAA2" stroke="#DCEFE9"/>
<path d="M288.472 137.906L318.335 147.643V158.986L288.472 148.946V137.906Z" fill="#6CBAA2" stroke="#DCEFE9"/>
<path d="M305.792 135.781L318.089 140.242V144.564L305.792 139.802V135.781Z" fill="#6CBAA2" stroke="#DCEFE9"/>
<circle r="9.11541" transform="matrix(-1 0 0 1 190.247 148.656)" fill="#5A5AD8" fill-opacity="0.3" stroke="#131353" stroke-width="3"/>
<path d="M98.9431 202.676C98.9431 205.612 113.738 210.854 119.242 212.348V232.399C101.235 229.097 72.0623 215.765 72.0623 207.63C72.0623 197.486 110.042 162.573 130.329 138.512L135.743 150.307C123.016 171.066 98.9431 196.779 98.9431 202.676Z" fill="#ED97B8"/>
<path d="M97.3501 173.725C95.3195 175.984 95.5045 179.462 97.7635 181.493C100.023 183.523 103.5 183.338 105.531 181.079L97.3501 173.725ZM126.903 140.85L97.3501 173.725L105.531 181.079L135.083 148.204L126.903 140.85Z" fill="url(#paint22_linear)"/>
<path d="M219.263 143.325C219.263 143.325 249.222 189.607 247.335 192.768C245.447 195.93 227.283 201.78 227.283 201.78L238.37 219.001C238.37 219.001 271.632 206.64 273.991 199.704C276.35 192.768 231.967 146.674 231.967 144.976C231.967 142.853 234.596 143.325 235.775 141.202C236.955 139.079 241.437 138.843 239.55 136.72C238.04 135.021 236.405 136.012 235.775 136.72C236.247 136.169 236.545 134.904 235.775 133.181C234.897 131.212 233.656 131.828 232.751 132.53C233.368 131.648 233.783 130.057 232.439 128.935C230.367 127.205 228.597 128.07 227.755 128.935C229.406 121.811 235.004 116.621 233.417 114.969C231.848 113.338 230.539 115.958 229.901 117.235L229.878 117.281L221.622 131.53L222.565 133.889C222.093 132.709 220.772 130.633 219.263 131.766C217.753 132.898 217.061 135.54 216.904 136.72L219.263 143.325Z" fill="#ED97B8"/>
<path d="M264.032 183.098L236.875 150.616L253.015 183.116C253.949 184.105 256.692 185.943 260.188 185.378C263.685 184.813 264.208 183.623 264.032 183.098Z" fill="url(#paint23_linear)"/>
<path d="M259.886 183.981L235.652 149.264L248.909 183.042C249.754 184.109 252.327 186.177 255.859 185.918C259.392 185.658 260.016 184.518 259.886 183.981Z" fill="url(#paint24_linear)"/>
<path d="M134.151 158.67C141.064 188.994 158.401 194.048 173.186 194.048C189.445 190.341 196.018 152.793 190.718 129.548C185.419 106.302 164.534 94.1631 141.652 103.363C118.77 112.563 128.851 135.424 134.151 158.67Z" fill="#ED97B8"/>
<path d="M160.996 182.153C150.514 184.928 142.203 176.963 138.586 170.83C133.679 164.695 127.498 139.455 127.498 122.707C127.734 114.686 133.962 98.881 156.986 99.8246C185.765 101.004 192.606 130.006 192.606 142.994C192.606 149.363 165.643 128.076 176.093 156.44C179.396 165.404 169.016 180.03 160.996 182.153Z" fill="#5A5AD8"/>
<path d="M198.268 142.758H172.319" stroke="#131353" stroke-width="3"/>
<path d="M175.83 152.91C180.68 157.405 181.786 160.703 185.163 160.528C188.832 159.489 188.139 152.152 186.654 146.906C187.552 138.698 181.304 136.774 176.187 139.146C171.07 141.517 171.831 149.203 175.83 152.91Z" fill="#F3BAD0"/>
<path d="M177.591 151.628C181.187 154.961 182.008 157.406 184.511 157.277C187.232 156.506 186.718 151.066 185.617 147.176C186.283 141.091 181.65 139.664 177.856 141.423C174.062 143.181 174.626 148.88 177.591 151.628Z" fill="#F9CDDE"/>
<path d="M127.263 128.368C125.632 115.866 130.015 114.214 130.094 112.327C130.094 112.327 132.3 112.043 136.699 110.44C144.785 107.494 154.35 102.681 163.591 101.476C169.017 100.768 173.263 104.307 173.263 104.307C159.974 109.418 127.514 130.295 127.263 128.368Z" fill="black"/>
<path d="M113.818 54.8298C114.744 53.3078 116.555 52.5698 118.28 53.0121L126.68 55.1651C127.836 55.4614 129.063 55.2324 130.035 54.5392L138.143 48.7527C139.767 47.594 141.993 47.7915 143.387 49.2179L147.412 53.3354C148.443 54.39 149.966 54.8002 151.387 54.406L159.53 52.1473C161.933 51.481 164.36 53.1249 164.633 55.6029L165.006 58.9851C165.214 60.874 166.709 62.3634 168.598 62.5651L173.715 63.1112C176.523 63.4109 178.168 66.4223 176.902 68.9471L175.197 72.3505C175.056 72.6311 178.717 68.8061 179.883 83.0359C176.902 92.4973 182.227 96.8247 144.44 113.058C103.673 138.04 99.8989 121.144 89.8872 119.979C88.8808 119.066 88.3374 117.659 88.6352 116.179L89.2634 113.058C89.6632 111.072 88.5326 109.097 86.6178 108.435L83.0194 107.193C80.3501 106.271 79.4224 102.967 81.2217 100.791L84.5001 96.8247C85.7108 95.36 85.7391 93.2502 84.5681 91.7536L82.4713 89.0738C80.9349 87.1103 81.5227 84.238 83.7069 83.0359L91.1106 78.961C92.4025 78.25 93.2053 76.8923 93.2057 75.4177L93.2075 69.6598C93.2081 67.6652 94.6623 65.9686 96.6334 65.6629L106.477 64.136C107.656 63.9531 108.695 63.259 109.315 62.2394L113.818 54.8298Z" fill="url(#paint25_linear)"/>
<path d="M167.458 102.451C185.099 88.9758 180.168 76.5099 175.497 71.9613L154.253 77.7136C132.677 86.1474 89.9121 105.549 88.7471 116.156C87.4059 128.368 124.807 130.494 134.791 121.144C155.793 101.475 145.408 119.296 167.458 102.451Z" fill="url(#paint26_linear)"/>
<path d="M171.106 186.497L154.68 188.182L157.071 211.494C163.495 214.083 167.093 213.618 173.497 209.809L171.106 186.497Z" fill="#ED97B8"/>
<path d="M121.366 206.686L157.93 217.066L180.576 214.707L225.161 196.543L241.674 224.143L211.479 240.184L219.498 321.679C219.498 344.798 187.646 331.984 170.85 331.984C154.054 331.984 138.617 352.868 138.617 315.412L127.027 240.184L111.222 234.994C110.593 231.22 109.712 222.35 111.222 217.066C112.732 211.782 118.613 207.944 121.366 206.686Z" fill="url(#paint27_linear)"/>
<path d="M173.97 208.809C167.082 212.304 163.256 212.884 156.514 210.461L154.605 217.7C164.392 221.34 169.836 220.179 179.503 215.146L173.97 208.809Z" fill="#FDEDF3"/>
<path d="M221.4 213.075H183.978C168.59 219.93 184.678 218.963 194.645 217.622C201.115 216.106 215.524 213.075 221.4 213.075Z" fill="url(#paint28_linear)"/>
<path d="M107.578 252.14C41.9191 303.772 130.857 351.566 182.15 351.566C256.505 351.566 302.467 335.449 317.986 287.656C317.986 241.396 252.625 253.334 221.885 279.598C174.73 335.723 170.253 236.621 107.578 252.14Z" fill="url(#paint29_linear)"/>
<path d="M177.371 143.659C176.852 144.987 175.447 148.079 177.16 148.986C178.189 149.531 178.749 150.397 179.48 151.359C180.298 152.436 180.75 152.714 181.274 153.891C181.426 154.233 181.934 154.715 182.223 154.946C183.074 155.627 184.966 155.168 184.966 154.102" stroke="#FDEDF3" stroke-linecap="round" stroke-linejoin="round"/>
<path d="M102.182 191.603C104.391 186.876 106.642 183.82 110.252 180.21C112.964 177.498 114.492 174.583 116.423 171.296C118.264 168.161 121.013 165.808 122.594 162.646" stroke="#ED97B8" stroke-linecap="round" stroke-linejoin="round"/>
<path d="M122.594 162.646C116.536 172.588 105.635 180.123 101.233 191.128" stroke="#ED97B8" stroke-linecap="round" stroke-linejoin="round"/>
<path d="M101.233 191.128C108.298 181.511 115.717 172.171 124.493 164.071" stroke="#ED97B8" stroke-linecap="round" stroke-linejoin="round"/>
<circle cx="185.376" cy="160.265" r="2.44815" fill="#6E6EC4"/>
<path d="M122.075 208.179C126.902 208.976 137.643 209.678 141.906 213.468C144.533 215.803 147.212 215.451 150.5 215.451" stroke="url(#paint30_linear)" stroke-width="7" stroke-linecap="round" stroke-linejoin="round"/>
<path d="M100.741 197.687L132.042 156.943C128.37 160.09 120.116 167.19 116.479 170.408C112.842 173.625 104.471 189.935 100.741 197.687Z" fill="url(#paint31_linear)"/>
<path d="M264.592 192.966H247.28L231.892 200.66C232.766 201.01 236.508 201.499 244.482 200.66C252.456 199.82 261.211 195.181 264.592 192.966Z" fill="url(#paint32_linear)"/>
<path d="M93.139 107.533C90.6881 107.264 83.2827 106.328 86.0755 101.892C86.4172 101.349 88.042 100.728 88.6262 100.568C93.0153 99.3607 87.452 89.917 87.3999 87.5199C87.3484 85.1519 89.1253 84.8341 91.275 84.3315C93.998 83.695 95.3549 83.9094 96.2292 80.8979C96.8476 78.768 96.1377 75.9316 97.2103 73.9816C97.7727 72.9589 101.957 71.57 102.949 71.3573C105.7 70.7678 110.171 71.981 112.588 70.6215C114.655 69.4587 115.065 66.5575 116.341 64.7353C118.136 62.1707 121.35 62.5034 124.213 62.5034C127.789 62.5034 130.08 63.5945 132.552 60.3697C133.563 59.0506 135.389 58.0888 137.139 58.0888C140.985 58.0888 139.572 59.1154 141.725 61.9148C143.557 64.2968 145.586 61.8648 147.219 60.8111C148.807 59.7865 151.387 59.4494 153.228 59.5113C156.829 59.6323 156.778 64.3015 157.152 66.9181" stroke="url(#paint33_linear)" stroke-width="2" stroke-linecap="round" stroke-linejoin="round"/>
<path d="M101.527 96.4965C106.918 90.028 113.141 87.8743 121.59 88.501C125.834 88.8158 129.954 89.9896 134.196 90.3159" stroke="url(#paint34_linear)" stroke-width="2" stroke-linecap="round" stroke-linejoin="round"/>
<path d="M125.808 73.9816C129.131 72.597 132.571 71.224 136.207 70.9895C139.106 70.8024 141.371 72.6899 143.564 74.3495C145.522 75.831 147.412 77.4675 149.696 75.8947C152.826 73.7393 155.788 71.9216 159.653 71.7988C166.228 71.5901 168.895 76.1864 169.513 82.3695" stroke="url(#paint35_linear)" stroke-width="2" stroke-linecap="round" stroke-linejoin="round"/>
<path d="M98.437 110.182C103.777 110.393 108.898 112.384 114.085 113.517C118.414 114.464 122.001 115.311 125.317 111.85C128.974 108.033 131.03 103.534 136.501 101.941C140.427 100.799 144.724 101.017 148.764 100.911" stroke="url(#paint36_linear)" stroke-width="2" stroke-linecap="round" stroke-linejoin="round"/>
</g>
<path d="M454.152 141.692C454.152 140.808 453.623 139.964 452.746 139.85C449.254 139.398 445.974 142.536 441.882 144.632C441.101 145.032 440.574 145.818 440.574 146.695V156.524C440.574 157.74 439.583 158.724 438.367 158.716L434.561 158.689C433.356 158.681 432.384 157.702 432.384 156.497V124.265C432.384 123.049 433.375 122.065 434.592 122.073L438.398 122.1C439.602 122.108 440.574 123.087 440.574 124.292V136.606C440.574 138.218 442.134 139.063 443.326 137.978C445.474 136.024 448.053 133.525 451.445 133.135C452.835 132.976 454.152 131.959 454.152 130.56V124.209C454.152 122.993 455.142 122.009 456.358 122.017L460.315 122.044C461.52 122.052 462.492 123.03 462.492 124.235V156.468C462.492 157.684 461.502 158.667 460.286 158.659L456.329 158.633C455.124 158.625 454.152 157.646 454.152 156.441V141.692Z" fill="#131353"/>
<path d="M479.191 142.044C479.218 142.146 479.237 142.249 479.249 142.354L479.951 148.578C479.958 148.638 480.008 148.683 480.068 148.683C480.127 148.683 480.178 148.639 480.185 148.58L480.979 142.319C480.999 142.168 481.033 142.02 481.083 141.876L487.449 123.531C487.755 122.649 488.586 122.058 489.52 122.058H491.408C492.347 122.058 493.181 122.656 493.483 123.544L499.755 141.989C499.802 142.127 499.835 142.27 499.854 142.414L500.645 148.554C500.655 148.628 500.717 148.683 500.792 148.683C500.867 148.683 500.93 148.627 500.939 148.553L501.707 142.092L506.162 123.733C506.4 122.75 507.28 122.058 508.292 122.058H511.574C513.04 122.058 514.093 123.47 513.675 124.875L504.003 157.369C503.726 158.298 502.872 158.936 501.902 158.936H499.855C498.928 158.936 498.102 158.353 497.79 157.48L491.266 139.19C491.223 139.067 491.19 138.942 491.169 138.813L490.29 133.537C490.273 133.433 490.183 133.357 490.077 133.357C489.972 133.357 489.882 133.433 489.864 133.537L488.985 138.866C488.964 138.994 488.931 139.12 488.888 139.242L482.415 157.477C482.104 158.351 481.277 158.936 480.349 158.936H478.045C477.074 158.936 476.219 158.297 475.944 157.366L466.318 124.872C465.902 123.468 466.954 122.058 468.419 122.058H472.26C473.257 122.058 474.128 122.73 474.381 123.694L479.191 142.044Z" fill="#131353"/>
<path d="M521.064 121.777C521.465 120.512 522.889 119.891 524.089 120.457L525.628 121.184C526.621 121.653 527.114 122.784 526.781 123.83L514.813 161.473C514.401 162.769 512.92 163.38 511.713 162.753L510.223 161.979C509.278 161.488 508.823 160.388 509.145 159.372L521.064 121.777Z" fill="#131353"/>
<path d="M546.999 137.177C547.814 137.518 548.345 138.315 548.345 139.199V140.324C548.345 141.118 547.915 141.851 547.221 142.238L526.36 153.872L525.425 154.416C523.709 155.415 521.655 153.799 522.222 151.896L522.9 149.621C523.061 149.079 523.425 148.621 523.916 148.342L535.617 141.686C535.704 141.636 535.795 141.593 535.89 141.559C537.507 140.971 537.446 138.663 535.8 138.158L529.283 135.877C528.166 135.486 527.561 134.28 527.916 133.151L528.294 131.95C528.681 130.72 530.04 130.088 531.23 130.585L546.999 137.177Z" fill="#131353"/>
<path d="M374.256 137.485C373.489 137.847 373 138.619 373 139.467V140.318C373 141.085 373.401 141.797 374.058 142.194L391.221 152.566L391.989 152.92C393.873 153.791 395.799 151.798 394.865 149.945L394.16 148.544C393.978 148.182 393.698 147.877 393.353 147.664L383.563 141.63C383.481 141.579 383.396 141.537 383.307 141.502C381.898 140.946 381.96 138.931 383.397 138.454L392.919 134.523C393.364 134.34 393.736 134.015 393.978 133.599L394.779 132.219C395.86 130.359 393.894 128.218 391.949 129.136L374.256 137.485Z" fill="#131353"/>
<path d="M398.007 130.985C397.24 133.356 396.857 136.041 396.857 139.04C396.857 141.865 397.206 144.446 397.903 146.782C398.599 149.118 399.645 151.124 401.039 152.797C402.467 154.471 404.227 155.779 406.318 156.721C408.444 157.627 410.918 158.081 413.74 158.081C416.354 158.081 418.706 157.662 420.797 156.825C422.888 155.953 424.665 154.715 426.128 153.111C426.523 152.67 426.892 152.201 427.236 151.706C428.159 150.378 427.016 148.724 425.415 148.493C424.35 148.339 423.34 148.087 422.376 147.754C421.581 147.478 420.701 147.804 420.17 148.456C418.636 150.339 416.493 151.28 413.74 151.28C412.242 151.28 410.935 150.984 409.82 150.391C408.74 149.798 407.851 148.961 407.154 147.88C406.457 146.799 405.935 145.509 405.586 144.01C405.238 142.51 405.064 140.854 405.064 139.04C405.064 134.786 405.83 131.682 407.363 129.729C408.897 127.777 411.022 126.8 413.74 126.8C415.308 126.8 416.633 127.114 417.713 127.742C418.828 128.334 419.734 129.189 420.431 130.305C421.163 131.386 421.685 132.676 421.999 134.176C422.313 135.675 422.469 137.297 422.469 139.04C422.469 139.463 422.462 139.873 422.448 140.272C422.407 141.436 423.198 142.505 424.359 142.589C425.957 142.704 427.498 142.637 428.966 142.425C429.901 142.289 430.595 141.507 430.64 140.564C430.664 140.065 430.676 139.557 430.676 139.04C430.676 136.216 430.31 133.635 429.578 131.299C428.881 128.962 427.818 126.957 426.39 125.283C424.996 123.609 423.236 122.319 421.11 121.412C419.02 120.471 416.563 120 413.74 120C411.092 120 408.722 120.436 406.632 121.308C404.541 122.145 402.764 123.383 401.3 125.022C399.871 126.626 398.774 128.613 398.007 130.985Z" fill="#131353"/>
<path d="M417.219 141.958C425.259 146.319 436.525 142.028 440.411 138.317C440.646 138.093 441.062 138.231 441.094 138.554L441.456 142.26C441.469 142.385 441.412 142.511 441.312 142.587C428.56 152.302 416.795 145.351 410.75 138.866C410.449 138.544 410.923 138.073 411.283 138.327C412.652 139.295 414.576 140.525 417.219 141.958Z" fill="#131353"/>
<path d="M405.137 175.304C404.475 175.304 403.858 175.184 403.286 174.944C402.723 174.704 402.235 174.377 401.821 173.963C401.407 173.541 401.08 173.048 400.84 172.485C400.608 171.914 400.492 171.305 400.492 170.659C400.492 170.013 400.608 169.409 400.84 168.846C401.08 168.275 401.407 167.782 401.821 167.368C402.235 166.946 402.723 166.614 403.286 166.374C403.858 166.134 404.475 166.014 405.137 166.014C405.799 166.014 406.412 166.134 406.975 166.374C407.546 166.614 408.039 166.946 408.453 167.368C408.867 167.782 409.19 168.275 409.422 168.846C409.662 169.409 409.782 170.013 409.782 170.659C409.782 171.305 409.662 171.914 409.422 172.485C409.19 173.048 408.867 173.541 408.453 173.963C408.039 174.377 407.546 174.704 406.975 174.944C406.412 175.184 405.799 175.304 405.137 175.304ZM405.137 173.715C405.551 173.715 405.936 173.64 406.292 173.491C406.656 173.342 406.971 173.135 407.236 172.87C407.509 172.605 407.72 172.286 407.869 171.914C408.027 171.533 408.105 171.115 408.105 170.659C408.105 170.204 408.027 169.79 407.869 169.417C407.72 169.036 407.509 168.713 407.236 168.448C406.971 168.183 406.656 167.976 406.292 167.827C405.936 167.678 405.551 167.604 405.137 167.604C404.723 167.604 404.334 167.678 403.969 167.827C403.613 167.976 403.299 168.183 403.026 168.448C402.761 168.713 402.549 169.036 402.392 169.417C402.243 169.79 402.169 170.204 402.169 170.659C402.169 171.115 402.243 171.533 402.392 171.914C402.549 172.286 402.761 172.605 403.026 172.87C403.299 173.135 403.613 173.342 403.969 173.491C404.334 173.64 404.723 173.715 405.137 173.715ZM410.891 169.02H412.419V169.753H412.518C412.667 169.496 412.899 169.276 413.213 169.094C413.528 168.912 413.917 168.821 414.381 168.821C414.77 168.821 415.139 168.904 415.486 169.069C415.842 169.227 416.153 169.45 416.418 169.74C416.691 170.022 416.906 170.361 417.064 170.759C417.221 171.156 417.3 171.591 417.3 172.063C417.3 172.535 417.221 172.969 417.064 173.367C416.906 173.764 416.691 174.108 416.418 174.398C416.153 174.679 415.842 174.903 415.486 175.068C415.139 175.226 414.77 175.304 414.381 175.304C413.917 175.304 413.528 175.213 413.213 175.031C412.899 174.849 412.667 174.63 412.518 174.373H412.419L412.518 175.242V177.788H410.891V169.02ZM414.046 173.802C414.261 173.802 414.464 173.76 414.654 173.677C414.853 173.595 415.027 173.479 415.176 173.33C415.325 173.181 415.445 172.998 415.536 172.783C415.627 172.568 415.673 172.328 415.673 172.063C415.673 171.798 415.627 171.558 415.536 171.342C415.445 171.127 415.325 170.945 415.176 170.796C415.027 170.647 414.853 170.531 414.654 170.448C414.464 170.365 414.261 170.324 414.046 170.324C413.83 170.324 413.623 170.365 413.425 170.448C413.234 170.523 413.064 170.634 412.915 170.783C412.766 170.932 412.646 171.115 412.555 171.33C412.464 171.545 412.419 171.789 412.419 172.063C412.419 172.336 412.464 172.58 412.555 172.795C412.646 173.011 412.766 173.193 412.915 173.342C413.064 173.491 413.234 173.607 413.425 173.69C413.623 173.764 413.83 173.802 414.046 173.802ZM424.102 173.64C423.821 174.137 423.44 174.538 422.96 174.845C422.488 175.151 421.908 175.304 421.221 175.304C420.757 175.304 420.327 175.226 419.929 175.068C419.54 174.903 419.2 174.675 418.911 174.385C418.621 174.095 418.393 173.756 418.228 173.367C418.07 172.969 417.992 172.535 417.992 172.063C417.992 171.624 418.07 171.21 418.228 170.821C418.385 170.423 418.604 170.08 418.886 169.79C419.167 169.492 419.499 169.256 419.879 169.082C420.269 168.908 420.695 168.821 421.159 168.821C421.647 168.821 422.082 168.904 422.463 169.069C422.844 169.227 423.163 169.45 423.419 169.74C423.676 170.022 423.87 170.357 424.003 170.746C424.135 171.135 424.202 171.558 424.202 172.013C424.202 172.071 424.202 172.121 424.202 172.162C424.193 172.212 424.189 172.257 424.189 172.299C424.181 172.34 424.177 172.386 424.177 172.435H419.594C419.627 172.684 419.693 172.899 419.792 173.081C419.9 173.255 420.028 173.404 420.178 173.528C420.335 173.644 420.505 173.731 420.687 173.789C420.869 173.839 421.055 173.864 421.246 173.864C421.618 173.864 421.925 173.781 422.165 173.615C422.413 173.441 422.608 173.226 422.749 172.969L424.102 173.64ZM422.624 171.28C422.616 171.173 422.579 171.053 422.513 170.92C422.455 170.788 422.363 170.663 422.239 170.547C422.123 170.431 421.974 170.336 421.792 170.262C421.618 170.187 421.407 170.15 421.159 170.15C420.811 170.15 420.505 170.249 420.24 170.448C419.975 170.647 419.788 170.924 419.681 171.28H422.624ZM426.769 169.815H426.868C427.058 169.508 427.315 169.268 427.638 169.094C427.961 168.912 428.329 168.821 428.743 168.821C429.124 168.821 429.46 168.883 429.749 169.007C430.039 169.132 430.275 169.31 430.457 169.541C430.648 169.765 430.789 170.038 430.88 170.361C430.979 170.676 431.029 171.028 431.029 171.417V175.106H429.402V171.616C429.402 171.177 429.302 170.854 429.104 170.647C428.913 170.431 428.632 170.324 428.259 170.324C428.035 170.324 427.837 170.374 427.663 170.473C427.497 170.564 427.352 170.692 427.228 170.858C427.112 171.015 427.021 171.206 426.955 171.429C426.897 171.645 426.868 171.876 426.868 172.125V175.106H425.241V169.02H426.769V169.815ZM435.301 166.213H436.977V169.765H440.716V166.213H442.393V175.106H440.716V171.355H436.977V175.106H435.301V166.213ZM447.549 174.46H447.45C447.26 174.692 447.028 174.89 446.754 175.056C446.49 175.222 446.146 175.304 445.724 175.304C445.409 175.304 445.111 175.251 444.829 175.143C444.556 175.044 444.316 174.903 444.109 174.721C443.902 174.538 443.74 174.319 443.625 174.062C443.509 173.806 443.451 173.524 443.451 173.218C443.451 172.903 443.513 172.622 443.637 172.373C443.761 172.117 443.935 171.897 444.159 171.715C444.382 171.533 444.643 171.396 444.941 171.305C445.247 171.206 445.579 171.156 445.935 171.156C446.332 171.156 446.659 171.189 446.916 171.255C447.173 171.313 447.384 171.375 447.549 171.442V171.255C447.549 170.932 447.421 170.667 447.164 170.46C446.908 170.245 446.589 170.138 446.208 170.138C445.645 170.138 445.169 170.374 444.78 170.845L443.6 170.038C444.246 169.227 445.127 168.821 446.245 168.821C447.189 168.821 447.91 169.045 448.406 169.492C448.903 169.931 449.152 170.585 449.152 171.454V175.106H447.549V174.46ZM447.549 172.634C447.359 172.543 447.16 172.473 446.953 172.423C446.754 172.365 446.535 172.336 446.295 172.336C445.906 172.336 445.604 172.423 445.388 172.597C445.181 172.762 445.078 172.969 445.078 173.218C445.078 173.466 445.177 173.665 445.376 173.814C445.583 173.963 445.819 174.038 446.084 174.038C446.299 174.038 446.498 174 446.68 173.926C446.862 173.843 447.015 173.739 447.14 173.615C447.272 173.483 447.371 173.334 447.438 173.168C447.512 172.994 447.549 172.816 447.549 172.634ZM456.16 173.553C455.895 174.066 455.522 174.489 455.042 174.82C454.57 175.143 453.978 175.304 453.266 175.304C452.794 175.304 452.359 175.226 451.962 175.068C451.573 174.903 451.233 174.675 450.944 174.385C450.662 174.095 450.438 173.756 450.273 173.367C450.115 172.969 450.037 172.535 450.037 172.063C450.037 171.591 450.115 171.156 450.273 170.759C450.438 170.361 450.662 170.022 450.944 169.74C451.233 169.45 451.573 169.227 451.962 169.069C452.359 168.904 452.794 168.821 453.266 168.821C453.97 168.821 454.562 168.982 455.042 169.305C455.522 169.628 455.874 170.046 456.098 170.56L454.607 171.181C454.467 170.899 454.285 170.688 454.061 170.547C453.846 170.398 453.572 170.324 453.241 170.324C453.026 170.324 452.823 170.365 452.633 170.448C452.442 170.531 452.272 170.647 452.123 170.796C451.983 170.945 451.871 171.127 451.788 171.342C451.705 171.558 451.664 171.798 451.664 172.063C451.664 172.328 451.705 172.568 451.788 172.783C451.871 172.998 451.983 173.181 452.123 173.33C452.272 173.479 452.442 173.595 452.633 173.677C452.823 173.76 453.026 173.802 453.241 173.802C453.581 173.802 453.866 173.727 454.098 173.578C454.338 173.421 454.529 173.197 454.67 172.907L456.16 173.553ZM457.153 166.213H458.78V171.057H458.854L460.891 169.02H462.903V169.119L460.643 171.317L463.09 175.006V175.106H461.164L459.5 172.435L458.78 173.143V175.106H457.153V166.213ZM465.474 166.213H467.25L468.629 171.404L468.827 172.361H468.927L469.187 171.404L470.467 167.405H472.032L473.323 171.404L473.572 172.348H473.671L473.857 171.404L475.149 166.213H476.925L474.565 175.106H472.951L471.56 170.821L471.299 169.839H471.2L470.939 170.821L469.548 175.106H467.933L465.474 166.213ZM482.905 173.64C482.623 174.137 482.242 174.538 481.762 174.845C481.29 175.151 480.71 175.304 480.023 175.304C479.559 175.304 479.129 175.226 478.731 175.068C478.342 174.903 478.003 174.675 477.713 174.385C477.423 174.095 477.195 173.756 477.03 173.367C476.872 172.969 476.794 172.535 476.794 172.063C476.794 171.624 476.872 171.21 477.03 170.821C477.187 170.423 477.407 170.08 477.688 169.79C477.97 169.492 478.301 169.256 478.682 169.082C479.071 168.908 479.497 168.821 479.961 168.821C480.449 168.821 480.884 168.904 481.265 169.069C481.646 169.227 481.965 169.45 482.221 169.74C482.478 170.022 482.673 170.357 482.805 170.746C482.938 171.135 483.004 171.558 483.004 172.013C483.004 172.071 483.004 172.121 483.004 172.162C482.996 172.212 482.991 172.257 482.991 172.299C482.983 172.34 482.979 172.386 482.979 172.435H478.396C478.429 172.684 478.495 172.899 478.595 173.081C478.702 173.255 478.831 173.404 478.98 173.528C479.137 173.644 479.307 173.731 479.489 173.789C479.671 173.839 479.857 173.864 480.048 173.864C480.42 173.864 480.727 173.781 480.967 173.615C481.215 173.441 481.41 173.226 481.551 172.969L482.905 173.64ZM481.427 171.28C481.418 171.173 481.381 171.053 481.315 170.92C481.257 170.788 481.166 170.663 481.042 170.547C480.926 170.431 480.777 170.336 480.594 170.262C480.42 170.187 480.209 170.15 479.961 170.15C479.613 170.15 479.307 170.249 479.042 170.448C478.777 170.647 478.591 170.924 478.483 171.28H481.427ZM489.867 173.64C489.585 174.137 489.204 174.538 488.724 174.845C488.252 175.151 487.672 175.304 486.985 175.304C486.521 175.304 486.091 175.226 485.693 175.068C485.304 174.903 484.965 174.675 484.675 174.385C484.385 174.095 484.158 173.756 483.992 173.367C483.835 172.969 483.756 172.535 483.756 172.063C483.756 171.624 483.835 171.21 483.992 170.821C484.149 170.423 484.369 170.08 484.65 169.79C484.932 169.492 485.263 169.256 485.644 169.082C486.033 168.908 486.459 168.821 486.923 168.821C487.412 168.821 487.846 168.904 488.227 169.069C488.608 169.227 488.927 169.45 489.184 169.74C489.44 170.022 489.635 170.357 489.767 170.746C489.9 171.135 489.966 171.558 489.966 172.013C489.966 172.071 489.966 172.121 489.966 172.162C489.958 172.212 489.954 172.257 489.954 172.299C489.945 172.34 489.941 172.386 489.941 172.435H485.358C485.391 172.684 485.457 172.899 485.557 173.081C485.664 173.255 485.793 173.404 485.942 173.528C486.099 173.644 486.269 173.731 486.451 173.789C486.633 173.839 486.82 173.864 487.01 173.864C487.383 173.864 487.689 173.781 487.929 173.615C488.178 173.441 488.372 173.226 488.513 172.969L489.867 173.64ZM488.389 171.28C488.38 171.173 488.343 171.053 488.277 170.92C488.219 170.788 488.128 170.663 488.004 170.547C487.888 170.431 487.739 170.336 487.557 170.262C487.383 170.187 487.171 170.15 486.923 170.15C486.575 170.15 486.269 170.249 486.004 170.448C485.739 170.647 485.553 170.924 485.445 171.28H488.389ZM491.005 166.213H492.632V171.057H492.707L494.744 169.02H496.756V169.119L494.495 171.317L496.942 175.006V175.106H495.017L493.353 172.435L492.632 173.143V175.106H491.005V166.213ZM500.196 175.106V173.628C500.685 173.147 501.136 172.7 501.55 172.286C501.724 172.112 501.902 171.934 502.084 171.752C502.266 171.57 502.436 171.4 502.593 171.243C502.751 171.086 502.891 170.945 503.016 170.821C503.14 170.688 503.235 170.585 503.301 170.51C503.434 170.353 503.55 170.212 503.649 170.088C503.757 169.964 503.839 169.844 503.897 169.728C503.964 169.603 504.013 169.483 504.046 169.367C504.08 169.243 504.096 169.111 504.096 168.97C504.096 168.697 503.989 168.461 503.773 168.262C503.558 168.055 503.264 167.952 502.891 167.952C502.519 167.952 502.229 168.059 502.022 168.275C501.815 168.482 501.674 168.717 501.6 168.982L500.122 168.374C500.188 168.15 500.296 167.923 500.445 167.691C500.594 167.451 500.784 167.239 501.016 167.057C501.248 166.867 501.521 166.714 501.836 166.598C502.159 166.474 502.519 166.411 502.916 166.411C503.347 166.411 503.736 166.478 504.084 166.61C504.432 166.734 504.725 166.908 504.966 167.132C505.206 167.355 505.392 167.62 505.524 167.927C505.657 168.225 505.723 168.548 505.723 168.896C505.723 169.425 505.591 169.914 505.326 170.361C505.069 170.8 504.754 171.21 504.382 171.591L503.314 172.659C503.032 172.94 502.713 173.255 502.357 173.603L502.407 173.677H505.847V175.106H500.196ZM508.07 175.18C507.772 175.18 507.515 175.077 507.3 174.87C507.093 174.654 506.989 174.398 506.989 174.1C506.989 173.802 507.093 173.549 507.3 173.342C507.515 173.135 507.772 173.031 508.07 173.031C508.368 173.031 508.62 173.135 508.827 173.342C509.034 173.549 509.138 173.802 509.138 174.1C509.138 174.398 509.034 174.654 508.827 174.87C508.62 175.077 508.368 175.18 508.07 175.18ZM513.84 175.304C513.293 175.304 512.8 175.193 512.362 174.969C511.923 174.737 511.546 174.423 511.231 174.025C510.925 173.628 510.689 173.16 510.523 172.622C510.358 172.075 510.275 171.487 510.275 170.858C510.275 170.229 510.358 169.645 510.523 169.107C510.689 168.56 510.925 168.088 511.231 167.691C511.546 167.293 511.923 166.983 512.362 166.759C512.8 166.527 513.293 166.411 513.84 166.411C514.386 166.411 514.879 166.527 515.318 166.759C515.756 166.983 516.129 167.293 516.435 167.691C516.75 168.088 516.99 168.56 517.156 169.107C517.321 169.645 517.404 170.229 517.404 170.858C517.404 171.487 517.321 172.075 517.156 172.622C516.99 173.16 516.75 173.628 516.435 174.025C516.129 174.423 515.756 174.737 515.318 174.969C514.879 175.193 514.386 175.304 513.84 175.304ZM513.84 173.764C514.138 173.764 514.407 173.694 514.647 173.553C514.887 173.404 515.09 173.201 515.255 172.945C515.429 172.68 515.558 172.369 515.641 172.013C515.732 171.657 515.777 171.272 515.777 170.858C515.777 170.436 515.732 170.051 515.641 169.703C515.558 169.347 515.429 169.04 515.255 168.784C515.09 168.519 514.887 168.316 514.647 168.175C514.407 168.026 514.138 167.952 513.84 167.952C513.533 167.952 513.26 168.026 513.02 168.175C512.78 168.316 512.577 168.519 512.411 168.784C512.246 169.04 512.117 169.347 512.026 169.703C511.943 170.051 511.902 170.436 511.902 170.858C511.902 171.272 511.943 171.657 512.026 172.013C512.117 172.369 512.246 172.68 512.411 172.945C512.577 173.201 512.78 173.404 513.02 173.553C513.26 173.694 513.533 173.764 513.84 173.764Z" fill="#131353"/>
<rect x="405.877" y="184.658" width="125.299" height="20.4569" rx="10.2285" fill="#B6B6FB"/>
<path d="M436.387 198.581H435.265L432.319 190.211H433.512L435.803 197.003H435.85L438.234 190.211H439.427L436.387 198.581ZM441.382 190.877C441.382 191.088 441.308 191.267 441.16 191.415C441.012 191.563 440.833 191.637 440.622 191.637C440.412 191.637 440.233 191.563 440.085 191.415C439.937 191.267 439.863 191.088 439.863 190.877C439.863 190.667 439.937 190.488 440.085 190.34C440.233 190.192 440.412 190.118 440.622 190.118C440.833 190.118 441.012 190.192 441.16 190.34C441.308 190.488 441.382 190.667 441.382 190.877ZM441.16 192.853V198.581H440.085V192.853H441.16ZM449.27 198.674C448.802 198.674 448.412 198.53 448.101 198.242C447.797 197.954 447.641 197.552 447.633 197.038V193.835H446.628V192.853H447.633V191.1H448.709V192.853H450.111V193.835H448.709V196.687C448.709 197.069 448.783 197.33 448.931 197.47C449.079 197.603 449.246 197.669 449.433 197.669C449.519 197.669 449.601 197.661 449.679 197.646C449.764 197.622 449.842 197.595 449.913 197.564L450.252 198.522C449.971 198.624 449.644 198.674 449.27 198.674ZM442.56 192.853H443.588V193.788H443.635C443.955 193.056 444.613 192.689 445.611 192.689L445.833 192.713V193.835L445.354 193.788C444.855 193.788 444.442 193.944 444.114 194.256C443.795 194.56 443.635 194.949 443.635 195.425V198.581H442.56V192.853ZM456.171 198.581H455.142V197.786H455.095C454.932 198.067 454.679 198.3 454.336 198.487C454.001 198.674 453.65 198.768 453.284 198.768C452.582 198.768 452.041 198.569 451.659 198.172C451.285 197.767 451.098 197.194 451.098 196.453V192.853H452.173V196.383C452.196 197.318 452.668 197.786 453.587 197.786C454.016 197.786 454.375 197.615 454.663 197.272C454.951 196.921 455.095 196.504 455.095 196.021V192.853H456.171V198.581ZM458.206 196.827C458.206 197.108 458.323 197.342 458.557 197.529C458.798 197.716 459.079 197.809 459.399 197.809C459.851 197.809 460.252 197.642 460.603 197.307C460.961 196.972 461.14 196.578 461.14 196.126C460.805 195.861 460.338 195.729 459.738 195.729C459.301 195.729 458.935 195.834 458.639 196.044C458.35 196.255 458.206 196.516 458.206 196.827ZM459.597 192.666C460.392 192.666 461.019 192.88 461.479 193.309C461.939 193.73 462.169 194.31 462.169 195.051V198.581H461.14V197.786H461.094C460.649 198.441 460.057 198.768 459.317 198.768C458.685 198.768 458.156 198.581 457.727 198.207C457.306 197.833 457.096 197.365 457.096 196.804C457.096 196.212 457.318 195.74 457.762 195.39C458.214 195.039 458.814 194.864 459.562 194.864C460.201 194.864 460.727 194.98 461.14 195.214V194.969C461.14 194.595 460.992 194.279 460.696 194.022C460.4 193.757 460.053 193.624 459.656 193.624C459.056 193.624 458.58 193.878 458.23 194.384L457.283 193.788C457.805 193.04 458.576 192.666 459.597 192.666ZM464.457 190.211V198.581H463.382V190.211H464.457ZM469.599 198.581H468.523V190.211H469.599V193.8H473.784V190.211H474.859V198.581H473.784V194.805H469.599V198.581ZM476.962 196.827C476.962 197.108 477.079 197.342 477.313 197.529C477.554 197.716 477.835 197.809 478.155 197.809C478.607 197.809 479.008 197.642 479.359 197.307C479.717 196.972 479.896 196.578 479.896 196.126C479.561 195.861 479.094 195.729 478.494 195.729C478.057 195.729 477.691 195.834 477.395 196.044C477.106 196.255 476.962 196.516 476.962 196.827ZM478.353 192.666C479.148 192.666 479.775 192.88 480.235 193.309C480.695 193.73 480.925 194.31 480.925 195.051V198.581H479.896V197.786H479.85C479.405 198.441 478.813 198.768 478.073 198.768C477.441 198.768 476.912 198.581 476.483 198.207C476.062 197.833 475.852 197.365 475.852 196.804C475.852 196.212 476.074 195.74 476.518 195.39C476.97 195.039 477.57 194.864 478.318 194.864C478.957 194.864 479.483 194.98 479.896 195.214V194.969C479.896 194.595 479.748 194.279 479.452 194.022C479.156 193.757 478.809 193.624 478.412 193.624C477.812 193.624 477.336 193.878 476.986 194.384L476.039 193.788C476.561 193.04 477.332 192.666 478.353 192.666ZM484.699 198.768C483.85 198.768 483.145 198.48 482.584 197.903C482.03 197.311 481.754 196.582 481.754 195.717C481.754 194.836 482.03 194.108 482.584 193.531C483.145 192.954 483.85 192.666 484.699 192.666C485.284 192.666 485.794 192.814 486.231 193.11C486.667 193.398 486.994 193.8 487.213 194.314L486.231 194.723C485.927 194.006 485.393 193.648 484.629 193.648C484.138 193.648 483.714 193.847 483.355 194.244C483.004 194.641 482.829 195.132 482.829 195.717C482.829 196.301 483.004 196.792 483.355 197.19C483.714 197.587 484.138 197.786 484.629 197.786C485.416 197.786 485.97 197.428 486.289 196.711L487.248 197.12C487.037 197.634 486.706 198.039 486.254 198.335C485.81 198.624 485.292 198.768 484.699 198.768ZM493.227 198.581H491.929L490.14 195.881L489.264 196.746V198.581H488.188V190.211H489.264V195.366L491.742 192.853H493.121V192.9L490.889 195.121L493.227 198.534V198.581ZM494.508 196.827C494.508 197.108 494.625 197.342 494.859 197.529C495.1 197.716 495.381 197.809 495.7 197.809C496.152 197.809 496.554 197.642 496.904 197.307C497.263 196.972 497.442 196.578 497.442 196.126C497.107 195.861 496.639 195.729 496.039 195.729C495.603 195.729 495.237 195.834 494.941 196.044C494.652 196.255 494.508 196.516 494.508 196.827ZM495.899 192.666C496.694 192.666 497.321 192.88 497.781 193.309C498.241 193.73 498.471 194.31 498.471 195.051V198.581H497.442V197.786H497.395C496.951 198.441 496.359 198.768 495.619 198.768C494.987 198.768 494.457 198.581 494.029 198.207C493.608 197.833 493.398 197.365 493.398 196.804C493.398 196.212 493.62 195.74 494.064 195.39C494.516 195.039 495.116 194.864 495.864 194.864C496.503 194.864 497.029 194.98 497.442 195.214V194.969C497.442 194.595 497.294 194.279 496.998 194.022C496.702 193.757 496.355 193.624 495.958 193.624C495.358 193.624 494.882 193.878 494.531 194.384L493.585 193.788C494.107 193.04 494.878 192.666 495.899 192.666ZM501.838 198.674C501.37 198.674 500.98 198.53 500.669 198.242C500.365 197.954 500.209 197.552 500.201 197.038V193.835H499.196V192.853H500.201V191.1H501.276V192.853H502.679V193.835H501.276V196.687C501.276 197.069 501.35 197.33 501.499 197.47C501.647 197.603 501.814 197.669 502.001 197.669C502.087 197.669 502.169 197.661 502.247 197.646C502.332 197.622 502.41 197.595 502.48 197.564L502.819 198.522C502.539 198.624 502.212 198.674 501.838 198.674ZM503.759 190.211H504.835V192.853L504.788 193.648H504.835C504.998 193.367 505.248 193.134 505.583 192.946C505.926 192.759 506.28 192.666 506.647 192.666C507.348 192.666 507.886 192.869 508.26 193.274C508.642 193.671 508.833 194.24 508.833 194.98V198.581H507.757V195.191C507.757 194.162 507.301 193.648 506.389 193.648C505.953 193.648 505.583 193.831 505.279 194.197C504.983 194.556 504.835 194.977 504.835 195.46V198.581H503.759V190.211ZM509.768 195.717C509.768 194.836 510.044 194.108 510.598 193.531C511.159 192.954 511.864 192.666 512.713 192.666C513.563 192.666 514.264 192.954 514.818 193.531C515.379 194.108 515.659 194.836 515.659 195.717C515.659 196.605 515.379 197.334 514.818 197.903C514.264 198.48 513.563 198.768 512.713 198.768C511.864 198.768 511.159 198.48 510.598 197.903C510.044 197.326 509.768 196.598 509.768 195.717ZM510.843 195.717C510.843 196.333 511.022 196.831 511.381 197.213C511.739 197.595 512.184 197.786 512.713 197.786C513.243 197.786 513.688 197.595 514.046 197.213C514.405 196.831 514.584 196.333 514.584 195.717C514.584 195.109 514.405 194.614 514.046 194.232C513.68 193.843 513.236 193.648 512.713 193.648C512.191 193.648 511.747 193.843 511.381 194.232C511.022 194.614 510.843 195.109 510.843 195.717ZM516.522 192.853H517.551V193.648H517.597C517.761 193.367 518.01 193.134 518.346 192.946C518.688 192.759 519.043 192.666 519.409 192.666C520.111 192.666 520.648 192.869 521.023 193.274C521.404 193.671 521.595 194.24 521.595 194.98V198.581H520.52V195.051C520.496 194.115 520.025 193.648 519.105 193.648C518.677 193.648 518.318 193.823 518.03 194.174C517.742 194.517 517.597 194.93 517.597 195.413V198.581H516.522V192.853Z" fill="#132653"/>
<g filter="url(#filter5_d)">
<path d="M429.257 199.999L408.784 208.228L391.265 199.999L408.784 195.409L429.257 199.999Z" fill="#F8BFD5"/>
<path d="M408.44 205.086L398.258 200.74C397.72 200.51 397.371 199.981 397.371 199.396V189.481C397.371 188.529 398.265 187.832 399.188 188.064L408.647 190.442C408.861 190.496 409.084 190.501 409.299 190.456L421.326 187.97C422.232 187.783 423.083 188.475 423.083 189.401V199.136C423.083 199.749 422.699 200.298 422.123 200.508L409.515 205.115C409.166 205.243 408.781 205.232 408.44 205.086Z" fill="#F8F2F4"/>
<path d="M408.836 193.374L397.371 190.66V200.296L408.836 205.246V193.374Z" fill="#E6D1D9"/>
<path d="M416.842 183.197L425.143 188.48C425.679 188.821 425.554 189.637 424.94 189.802L406.597 194.73L395.014 191.438C394.454 191.279 394.296 190.561 394.738 190.181L402.661 183.374C402.793 183.26 402.962 183.197 403.137 183.197H416.842Z" fill="url(#paint37_linear)"/>
<path d="M416.842 183.197L425.143 188.48C425.679 188.821 425.554 189.637 424.94 189.802L406.597 194.73M416.842 183.197L406.597 194.73M416.842 183.197H403.137C402.962 183.197 402.793 183.26 402.661 183.374L394.738 190.181C394.296 190.561 394.454 191.279 395.014 191.438L406.597 194.73" stroke="#6E6EC4" stroke-width="0.365302"/>
<path d="M415.688 195.544L420.03 194.052V201.311L415.688 202.871V195.544Z" fill="#E6D1D9"/>
<path d="M402.256 194.492L400.763 194.052V197.514L402.256 197.986V194.492Z" fill="#F8F2F4"/>
<path d="M404.155 195.036L402.663 194.595V198.057L404.155 198.53V195.036Z" fill="#F8F2F4"/>
</g>
<defs>
<filter id="filter0_d" x="535" y="17" width="408" height="407.434" filterUnits="userSpaceOnUse" color-interpolation-filters="sRGB">
<feFlood flood-opacity="0" result="BackgroundImageFix"/>
<feColorMatrix in="SourceAlpha" type="matrix" values="0 0 0 0 0 0 0 0 0 0 0 0 0 0 0 0 0 0 127 0"/>
<feOffset dx="-8" dy="16"/>
<feGaussianBlur stdDeviation="32"/>
<feColorMatrix type="matrix" values="0 0 0 0 0.956863 0 0 0 0 0.313726 0 0 0 0 0.560784 0 0 0 0.3 0"/>
<feBlend mode="normal" in2="BackgroundImageFix" result="effect1_dropShadow"/>
<feBlend mode="normal" in="SourceGraphic" in2="effect1_dropShadow" result="shape"/>
</filter>
<filter id="filter1_d" x="0.0623779" y="0" width="408" height="446.037" filterUnits="userSpaceOnUse" color-interpolation-filters="sRGB">
<feFlood flood-opacity="0" result="BackgroundImageFix"/>
<feColorMatrix in="SourceAlpha" type="matrix" values="0 0 0 0 0 0 0 0 0 0 0 0 0 0 0 0 0 0 127 0"/>
<feOffset dx="-8" dy="16"/>
<feGaussianBlur stdDeviation="32"/>
<feColorMatrix type="matrix" values="0 0 0 0 0.956863 0 0 0 0 0.313726 0 0 0 0 0.560784 0 0 0 0.3 0"/>
<feBlend mode="normal" in2="BackgroundImageFix" result="effect1_dropShadow"/>
<feBlend mode="normal" in="SourceGraphic" in2="effect1_dropShadow" result="shape"/>
</filter>
<filter id="filter2_d" x="178.68" y="96.4793" width="29.2966" height="31.0292" filterUnits="userSpaceOnUse" color-interpolation-filters="sRGB">
<feFlood flood-opacity="0" result="BackgroundImageFix"/>
<feColorMatrix in="SourceAlpha" type="matrix" values="0 0 0 0 0 0 0 0 0 0 0 0 0 0 0 0 0 0 127 0"/>
<feOffset dx="-4" dy="1"/>
<feGaussianBlur stdDeviation="4"/>
<feColorMatrix type="matrix" values="0 0 0 0 0.432 0 0 0 0 0.432 0 0 0 0 0.768 0 0 0 0.5 0"/>
<feBlend mode="normal" in2="BackgroundImageFix" result="effect1_dropShadow"/>
<feBlend mode="normal" in="SourceGraphic" in2="effect1_dropShadow" result="shape"/>
</filter>
<filter id="filter3_d" x="162.87" y="91.2093" width="29.2966" height="31.0292" filterUnits="userSpaceOnUse" color-interpolation-filters="sRGB">
<feFlood flood-opacity="0" result="BackgroundImageFix"/>
<feColorMatrix in="SourceAlpha" type="matrix" values="0 0 0 0 0 0 0 0 0 0 0 0 0 0 0 0 0 0 127 0"/>
<feOffset dx="-4" dy="1"/>
<feGaussianBlur stdDeviation="4"/>
<feColorMatrix type="matrix" values="0 0 0 0 0.432 0 0 0 0 0.432 0 0 0 0 0.768 0 0 0 0.5 0"/>
<feBlend mode="normal" in2="BackgroundImageFix" result="effect1_dropShadow"/>
<feBlend mode="normal" in="SourceGraphic" in2="effect1_dropShadow" result="shape"/>
</filter>
<filter id="filter4_d" x="147.06" y="84.1827" width="29.2966" height="31.0292" filterUnits="userSpaceOnUse" color-interpolation-filters="sRGB">
<feFlood flood-opacity="0" result="BackgroundImageFix"/>
<feColorMatrix in="SourceAlpha" type="matrix" values="0 0 0 0 0 0 0 0 0 0 0 0 0 0 0 0 0 0 127 0"/>
<feOffset dx="-4" dy="1"/>
<feGaussianBlur stdDeviation="4"/>
<feColorMatrix type="matrix" values="0 0 0 0 0.432 0 0 0 0 0.432 0 0 0 0 0.768 0 0 0 0.5 0"/>
<feBlend mode="normal" in2="BackgroundImageFix" result="effect1_dropShadow"/>
<feBlend mode="normal" in="SourceGraphic" in2="effect1_dropShadow" result="shape"/>
</filter>
<filter id="filter5_d" x="364.963" y="165.48" width="84.7501" height="71.9722" filterUnits="userSpaceOnUse" color-interpolation-filters="sRGB">
<feFlood flood-opacity="0" result="BackgroundImageFix"/>
<feColorMatrix in="SourceAlpha" type="matrix" values="0 0 0 0 0 0 0 0 0 0 0 0 0 0 0 0 0 0 127 0"/>
<feOffset dx="-2.92242" dy="5.84483"/>
<feGaussianBlur stdDeviation="11.6897"/>
<feColorMatrix type="matrix" values="0 0 0 0 0.956863 0 0 0 0 0.313726 0 0 0 0 0.560784 0 0 0 0.3 0"/>
<feBlend mode="normal" in2="BackgroundImageFix" result="effect1_dropShadow"/>
<feBlend mode="normal" in="SourceGraphic" in2="effect1_dropShadow" result="shape"/>
</filter>
<linearGradient id="paint0_linear" x1="765.032" y1="65" x2="765.032" y2="175.94" gradientUnits="userSpaceOnUse">
<stop stop-color="#6CBAA2"/>
<stop offset="1" stop-color="#B7B7E1"/>
</linearGradient>
<linearGradient id="paint1_linear" x1="651.589" y1="84.9666" x2="651.589" y2="219.455" gradientUnits="userSpaceOnUse">
<stop stop-color="#6CBAA2"/>
<stop offset="1" stop-color="#6E6EC4"/>
</linearGradient>
<linearGradient id="paint2_linear" x1="761.724" y1="209.078" x2="755.356" y2="291.05" gradientUnits="userSpaceOnUse">
<stop stop-color="#132653"/>
<stop offset="1" stop-color="#5A5AD8"/>
</linearGradient>
<linearGradient id="paint3_linear" x1="754.022" y1="102.773" x2="751.444" y2="173.24" gradientUnits="userSpaceOnUse">
<stop stop-color="#ED97B8"/>
<stop offset="0.28125" stop-color="#5A5AD8"/>
</linearGradient>
<linearGradient id="paint4_linear" x1="751.702" y1="121.338" x2="751.702" y2="172.5" gradientUnits="userSpaceOnUse">
<stop offset="0.421875" stop-color="#5A5AD8"/>
<stop offset="1" stop-color="#B7B7E1"/>
</linearGradient>
<linearGradient id="paint5_linear" x1="685.207" y1="219.483" x2="687.943" y2="317.643" gradientUnits="userSpaceOnUse">
<stop stop-color="#F8BFD5"/>
<stop offset="1" stop-color="#6E6EC4"/>
</linearGradient>
<linearGradient id="paint6_linear" x1="780.59" y1="193.475" x2="780.59" y2="198.942" gradientUnits="userSpaceOnUse">
<stop stop-color="#F4508F"/>
<stop offset="1" stop-color="#F4508F" stop-opacity="0"/>
</linearGradient>
<linearGradient id="paint7_linear" x1="783.989" y1="195.404" x2="783.989" y2="199.585" gradientUnits="userSpaceOnUse">
<stop stop-color="#F4508F"/>
<stop offset="1" stop-color="#F4508F" stop-opacity="0"/>
</linearGradient>
<linearGradient id="paint8_linear" x1="717.581" y1="199.263" x2="717.581" y2="202.801" gradientUnits="userSpaceOnUse">
<stop stop-color="#F4508F"/>
<stop offset="1" stop-color="#F4508F" stop-opacity="0"/>
</linearGradient>
<linearGradient id="paint9_linear" x1="720.015" y1="196.369" x2="720.015" y2="202.801" gradientUnits="userSpaceOnUse">
<stop stop-color="#F4508F"/>
<stop offset="1" stop-color="#F4508F" stop-opacity="0"/>
</linearGradient>
<linearGradient id="paint10_linear" x1="722.405" y1="193.153" x2="722.405" y2="199.263" gradientUnits="userSpaceOnUse">
<stop stop-color="#F4508F"/>
<stop offset="1" stop-color="#F4508F" stop-opacity="0"/>
</linearGradient>
<linearGradient id="paint11_linear" x1="785.758" y1="198.62" x2="785.758" y2="204.087" gradientUnits="userSpaceOnUse">
<stop stop-color="#F4508F"/>
<stop offset="1" stop-color="#F4508F" stop-opacity="0"/>
</linearGradient>
<linearGradient id="paint12_linear" x1="765.956" y1="162.281" x2="765.956" y2="190.259" gradientUnits="userSpaceOnUse">
<stop stop-color="#F4508F"/>
<stop offset="1" stop-color="#F4508F" stop-opacity="0"/>
</linearGradient>
<linearGradient id="paint13_linear" x1="726.088" y1="141.699" x2="726.088" y2="152.633" gradientUnits="userSpaceOnUse">
<stop stop-color="#F4508F"/>
<stop offset="1" stop-color="#F4508F" stop-opacity="0"/>
</linearGradient>
<linearGradient id="paint14_linear" x1="777.784" y1="142.664" x2="777.784" y2="151.668" gradientUnits="userSpaceOnUse">
<stop stop-color="#F4508F"/>
<stop offset="1" stop-color="#F4508F" stop-opacity="0"/>
</linearGradient>
<linearGradient id="paint15_linear" x1="767.106" y1="155.849" x2="767.106" y2="177.717" gradientUnits="userSpaceOnUse">
<stop stop-color="#F8BFD5"/>
<stop offset="1" stop-color="#F8BFD5" stop-opacity="0"/>
</linearGradient>
<linearGradient id="paint16_linear" x1="725.685" y1="141.377" x2="725.685" y2="149.739" gradientUnits="userSpaceOnUse">
<stop stop-color="#F8BFD5"/>
<stop offset="1" stop-color="#F8BFD5" stop-opacity="0"/>
</linearGradient>
<linearGradient id="paint17_linear" x1="778.14" y1="141.377" x2="778.14" y2="148.774" gradientUnits="userSpaceOnUse">
<stop stop-color="#F8BFD5"/>
<stop offset="1" stop-color="#F8BFD5" stop-opacity="0"/>
</linearGradient>
<linearGradient id="paint18_linear" x1="741.058" y1="170.32" x2="741.058" y2="189.294" gradientUnits="userSpaceOnUse">
<stop stop-color="#F8BFD5"/>
<stop offset="1" stop-color="#F8BFD5" stop-opacity="0"/>
</linearGradient>
<linearGradient id="paint19_linear" x1="736.716" y1="107.325" x2="736.716" y2="117.902" gradientUnits="userSpaceOnUse">
<stop stop-color="#F8BFD5"/>
<stop offset="1" stop-color="#F8BFD5" stop-opacity="0"/>
</linearGradient>
<linearGradient id="paint20_linear" x1="760.668" y1="101.973" x2="760.668" y2="119.188" gradientUnits="userSpaceOnUse">
<stop stop-color="#F8BFD5"/>
<stop offset="1" stop-color="#F8BFD5" stop-opacity="0"/>
</linearGradient>
<linearGradient id="paint21_linear" x1="750.866" y1="113.726" x2="750.866" y2="119.188" gradientUnits="userSpaceOnUse">
<stop stop-color="#F8BFD5"/>
<stop offset="1" stop-color="#F8BFD5" stop-opacity="0"/>
</linearGradient>
<linearGradient id="paint22_linear" x1="116.217" y1="144.527" x2="116.217" y2="177.402" gradientUnits="userSpaceOnUse">
<stop stop-color="#F8BFD5"/>
<stop offset="1" stop-color="#F8BFD5" stop-opacity="0"/>
</linearGradient>
<linearGradient id="paint23_linear" x1="250.442" y1="150.595" x2="250.498" y2="185.497" gradientUnits="userSpaceOnUse">
<stop stop-color="#DCEFE9"/>
<stop offset="1" stop-color="#DCEFE9" stop-opacity="0"/>
</linearGradient>
<linearGradient id="paint24_linear" x1="250.078" y1="154.844" x2="239.236" y2="180.025" gradientUnits="userSpaceOnUse">
<stop stop-color="#F8BFD5"/>
<stop offset="1" stop-color="#F8BFD5" stop-opacity="0"/>
</linearGradient>
<linearGradient id="paint25_linear" x1="115.338" y1="59.6396" x2="145.482" y2="126.791" gradientUnits="userSpaceOnUse">
<stop stop-color="#F8BFD5"/>
<stop offset="1" stop-color="#5A5AD8"/>
</linearGradient>
<linearGradient id="paint26_linear" x1="115.338" y1="59.6396" x2="145.482" y2="126.791" gradientUnits="userSpaceOnUse">
<stop stop-color="#F8BFD5"/>
<stop offset="1" stop-color="#5A5AD8"/>
</linearGradient>
<linearGradient id="paint27_linear" x1="166.672" y1="221.259" x2="183.385" y2="357.353" gradientUnits="userSpaceOnUse">
<stop stop-color="#132653"/>
<stop offset="1" stop-color="#5A5AD8"/>
</linearGradient>
<linearGradient id="paint28_linear" x1="199.9" y1="213.075" x2="199.9" y2="218.58" gradientUnits="userSpaceOnUse">
<stop stop-color="#6E6EC4"/>
<stop offset="1" stop-color="#6E6EC4" stop-opacity="0"/>
</linearGradient>
<linearGradient id="paint29_linear" x1="95.6404" y1="280.792" x2="200.985" y2="350.794" gradientUnits="userSpaceOnUse">
<stop stop-color="#F8BFD5"/>
<stop offset="1" stop-color="#6E6EC4"/>
</linearGradient>
<linearGradient id="paint30_linear" x1="136.287" y1="208.179" x2="136.287" y2="215.47" gradientUnits="userSpaceOnUse">
<stop stop-color="#B7B7E1"/>
<stop offset="1" stop-color="#B7B7E1" stop-opacity="0"/>
</linearGradient>
<linearGradient id="paint31_linear" x1="116.391" y1="156.943" x2="116.391" y2="197.687" gradientUnits="userSpaceOnUse">
<stop stop-color="#F4508F"/>
<stop offset="1" stop-color="#F4508F" stop-opacity="0"/>
</linearGradient>
<linearGradient id="paint32_linear" x1="248.242" y1="192.966" x2="248.242" y2="201.123" gradientUnits="userSpaceOnUse">
<stop stop-color="#F4508F"/>
<stop offset="1" stop-color="#F4508F" stop-opacity="0"/>
</linearGradient>
<linearGradient id="paint33_linear" x1="121.304" y1="58.0888" x2="121.304" y2="107.533" gradientUnits="userSpaceOnUse">
<stop stop-color="#FDEDF3"/>
<stop offset="1" stop-color="#FDEDF3" stop-opacity="0"/>
</linearGradient>
<linearGradient id="paint34_linear" x1="117.862" y1="88.3972" x2="117.862" y2="96.4965" gradientUnits="userSpaceOnUse">
<stop stop-color="#FDEDF3"/>
<stop offset="1" stop-color="#FDEDF3" stop-opacity="0"/>
</linearGradient>
<linearGradient id="paint35_linear" x1="147.66" y1="70.9766" x2="147.66" y2="82.3695" gradientUnits="userSpaceOnUse">
<stop stop-color="#FDEDF3"/>
<stop offset="1" stop-color="#FDEDF3" stop-opacity="0"/>
</linearGradient>
<linearGradient id="paint36_linear" x1="123.601" y1="100.911" x2="123.601" y2="114.351" gradientUnits="userSpaceOnUse">
<stop stop-color="#FDEDF3"/>
<stop offset="1" stop-color="#FDEDF3" stop-opacity="0"/>
</linearGradient>
<linearGradient id="paint37_linear" x1="410.125" y1="183.197" x2="410.125" y2="194.73" gradientUnits="userSpaceOnUse">
<stop stop-color="#B7B7E1"/>
<stop offset="1" stop-color="#6E6EC4"/>
</linearGradient>
</defs>
</svg>
