<svg width="265" height="116" viewBox="0 0 265 116" fill="none" xmlns="http://www.w3.org/2000/svg">
<rect x="65.2434" y="31.3242" width="199.313" height="32.5409" rx="16.2705" fill="#B6B6FB"/>
<path d="M113.776 53.9729H111.991L107.305 40.659H109.201L112.846 51.4626H112.92L116.714 40.659H118.61L113.776 53.9729ZM121.721 41.7189C121.721 42.0536 121.604 42.3388 121.368 42.5743C121.132 42.8098 120.847 42.9276 120.513 42.9276C120.178 42.9276 119.893 42.8098 119.657 42.5743C119.422 42.3388 119.304 42.0536 119.304 41.7189C119.304 41.3842 119.422 41.0991 119.657 40.8636C119.893 40.628 120.178 40.5103 120.513 40.5103C120.847 40.5103 121.132 40.628 121.368 40.8636C121.604 41.0991 121.721 41.3842 121.721 41.7189ZM121.368 44.8614V53.9729H119.657V44.8614H121.368ZM134.268 54.1217C133.524 54.1217 132.904 53.8923 132.408 53.4337C131.925 52.975 131.677 52.3366 131.664 51.5184V46.4234H130.065V44.8614H131.664V42.0722H133.375V44.8614H135.607V46.4234H133.375V50.9605C133.375 51.568 133.493 51.9833 133.728 52.2064C133.964 52.4171 134.231 52.5225 134.528 52.5225C134.664 52.5225 134.795 52.5101 134.919 52.4853C135.055 52.4481 135.179 52.4047 135.29 52.3552L135.83 53.8799C135.383 54.0411 134.863 54.1217 134.268 54.1217ZM123.594 44.8614H125.231V46.349H125.305C125.813 45.1838 126.861 44.6011 128.448 44.6011L128.801 44.6383V46.4234L128.038 46.349C127.245 46.349 126.588 46.597 126.067 47.0928C125.559 47.5763 125.305 48.1961 125.305 48.9523V53.9729H123.594V44.8614ZM145.246 53.9729H143.609V52.7085H143.535C143.275 53.1547 142.872 53.5266 142.326 53.8241C141.793 54.1217 141.235 54.2704 140.653 54.2704C139.537 54.2704 138.675 53.9543 138.068 53.3221C137.473 52.6775 137.175 51.7663 137.175 50.5886V44.8614H138.886V50.4771C138.923 51.9647 139.673 52.7085 141.136 52.7085C141.818 52.7085 142.388 52.4357 142.847 51.8903C143.306 51.3324 143.535 50.6692 143.535 49.9006V44.8614H145.246V53.9729ZM148.483 51.1837C148.483 51.63 148.669 52.0019 149.041 52.2994C149.425 52.5969 149.872 52.7456 150.38 52.7456C151.099 52.7456 151.737 52.4791 152.295 51.9461C152.865 51.413 153.15 50.787 153.15 50.068C152.617 49.6465 151.874 49.4358 150.919 49.4358C150.225 49.4358 149.642 49.6031 149.171 49.9378C148.712 50.2725 148.483 50.6878 148.483 51.1837ZM150.696 44.5639C151.96 44.5639 152.958 44.9048 153.69 45.5866C154.421 46.2561 154.787 47.1796 154.787 48.3573V53.9729H153.15V52.7085H153.076C152.369 53.7498 151.427 54.2704 150.25 54.2704C149.246 54.2704 148.403 53.9729 147.721 53.3779C147.051 52.7828 146.717 52.039 146.717 51.1465C146.717 50.2044 147.07 49.4544 147.777 48.8965C148.496 48.3387 149.45 48.0598 150.64 48.0598C151.657 48.0598 152.493 48.2457 153.15 48.6176V48.2271C153.15 47.6321 152.915 47.13 152.444 46.7209C151.973 46.2994 151.421 46.0887 150.789 46.0887C149.834 46.0887 149.078 46.4916 148.52 47.2974L147.014 46.349C147.845 45.159 149.072 44.5639 150.696 44.5639ZM158.427 40.659V53.9729H156.716V40.659H158.427ZM166.606 53.9729H164.895V40.659H166.606V46.3676H173.262V40.659H174.973V53.9729H173.262V47.9668H166.606V53.9729ZM178.318 51.1837C178.318 51.63 178.504 52.0019 178.876 52.2994C179.261 52.5969 179.707 52.7456 180.215 52.7456C180.934 52.7456 181.572 52.4791 182.13 51.9461C182.701 51.413 182.986 50.787 182.986 50.068C182.453 49.6465 181.709 49.4358 180.754 49.4358C180.06 49.4358 179.477 49.6031 179.006 49.9378C178.548 50.2725 178.318 50.6878 178.318 51.1837ZM180.531 44.5639C181.796 44.5639 182.794 44.9048 183.525 45.5866C184.256 46.2561 184.622 47.1796 184.622 48.3573V53.9729H182.986V52.7085H182.911C182.205 53.7498 181.263 54.2704 180.085 54.2704C179.081 54.2704 178.238 53.9729 177.556 53.3779C176.887 52.7828 176.552 52.039 176.552 51.1465C176.552 50.2044 176.905 49.4544 177.612 48.8965C178.331 48.3387 179.285 48.0598 180.475 48.0598C181.492 48.0598 182.329 48.2457 182.986 48.6176V48.2271C182.986 47.6321 182.75 47.13 182.279 46.7209C181.808 46.2994 181.256 46.0887 180.624 46.0887C179.67 46.0887 178.913 46.4916 178.356 47.2974L176.849 46.349C177.68 45.159 178.907 44.5639 180.531 44.5639ZM190.626 54.2704C189.275 54.2704 188.153 53.8117 187.26 52.8944C186.38 51.9523 185.94 50.7932 185.94 49.4172C185.94 48.0164 186.38 46.8573 187.26 45.9399C188.153 45.0226 189.275 44.5639 190.626 44.5639C191.556 44.5639 192.368 44.7995 193.062 45.2705C193.756 45.7292 194.277 46.3676 194.624 47.1858L193.062 47.8366C192.578 46.6961 191.729 46.1259 190.514 46.1259C189.733 46.1259 189.058 46.442 188.488 47.0742C187.93 47.7065 187.651 48.4874 187.651 49.4172C187.651 50.3469 187.93 51.1279 188.488 51.7601C189.058 52.3923 189.733 52.7085 190.514 52.7085C191.766 52.7085 192.647 52.1382 193.155 50.9977L194.68 51.6486C194.345 52.4667 193.818 53.1113 193.099 53.5824C192.392 54.0411 191.568 54.2704 190.626 54.2704ZM204.19 53.9729H202.126L199.281 49.6775L197.886 51.0535V53.9729H196.176V40.659H197.886V48.8593L201.829 44.8614H204.023V44.9358L200.471 48.4688L204.19 53.8985V53.9729ZM206.229 51.1837C206.229 51.63 206.415 52.0019 206.787 52.2994C207.171 52.5969 207.617 52.7456 208.125 52.7456C208.844 52.7456 209.483 52.4791 210.041 51.9461C210.611 51.413 210.896 50.787 210.896 50.068C210.363 49.6465 209.619 49.4358 208.665 49.4358C207.97 49.4358 207.388 49.6031 206.917 49.9378C206.458 50.2725 206.229 50.6878 206.229 51.1837ZM208.442 44.5639C209.706 44.5639 210.704 44.9048 211.435 45.5866C212.167 46.2561 212.532 47.1796 212.532 48.3573V53.9729H210.896V52.7085H210.822C210.115 53.7498 209.173 54.2704 207.995 54.2704C206.991 54.2704 206.148 53.9729 205.466 53.3779C204.797 52.7828 204.462 52.039 204.462 51.1465C204.462 50.2044 204.816 49.4544 205.522 48.8965C206.241 48.3387 207.196 48.0598 208.386 48.0598C209.402 48.0598 210.239 48.2457 210.896 48.6176V48.2271C210.896 47.6321 210.66 47.13 210.189 46.7209C209.718 46.2994 209.167 46.0887 208.534 46.0887C207.58 46.0887 206.824 46.4916 206.266 47.2974L204.76 46.349C205.59 45.159 206.818 44.5639 208.442 44.5639ZM217.888 54.1217C217.144 54.1217 216.524 53.8923 216.028 53.4337C215.545 52.975 215.297 52.3366 215.284 51.5184V46.4234H213.685V44.8614H215.284V42.0722H216.995V44.8614H219.226V46.4234H216.995V50.9605C216.995 51.568 217.113 51.9833 217.348 52.2064C217.584 52.4171 217.85 52.5225 218.148 52.5225C218.284 52.5225 218.415 52.5101 218.538 52.4853C218.675 52.4481 218.799 52.4047 218.91 52.3552L219.45 53.8799C219.003 54.0411 218.483 54.1217 217.888 54.1217ZM220.945 40.659H222.655V44.8614L222.581 46.1259H222.655C222.916 45.6796 223.312 45.3077 223.845 45.0102C224.391 44.7127 224.955 44.5639 225.538 44.5639C226.653 44.5639 227.509 44.8862 228.104 45.5309C228.711 46.1631 229.015 47.068 229.015 48.2457V53.9729H227.304V48.5804C227.304 46.9441 226.579 46.1259 225.128 46.1259C224.434 46.1259 223.845 46.4172 223.362 46.9998C222.891 47.5701 222.655 48.2395 222.655 49.0081V53.9729H220.945V40.659ZM230.502 49.4172C230.502 48.0164 230.942 46.8573 231.822 45.9399C232.715 45.0226 233.837 44.5639 235.188 44.5639C236.539 44.5639 237.655 45.0226 238.535 45.9399C239.428 46.8573 239.874 48.0164 239.874 49.4172C239.874 50.8304 239.428 51.9895 238.535 52.8944C237.655 53.8117 236.539 54.2704 235.188 54.2704C233.837 54.2704 232.715 53.8117 231.822 52.8944C230.942 51.9771 230.502 50.818 230.502 49.4172ZM232.213 49.4172C232.213 50.3965 232.498 51.1899 233.068 51.7973C233.639 52.4047 234.345 52.7085 235.188 52.7085C236.031 52.7085 236.738 52.4047 237.308 51.7973C237.878 51.1899 238.163 50.3965 238.163 49.4172C238.163 48.4502 237.878 47.6631 237.308 47.0556C236.725 46.4358 236.019 46.1259 235.188 46.1259C234.358 46.1259 233.651 46.4358 233.068 47.0556C232.498 47.6631 232.213 48.4502 232.213 49.4172ZM241.246 44.8614H242.883V46.1259H242.957C243.217 45.6796 243.614 45.3077 244.147 45.0102C244.693 44.7127 245.257 44.5639 245.839 44.5639C246.955 44.5639 247.81 44.8862 248.405 45.5309C249.013 46.1631 249.317 47.068 249.317 48.2457V53.9729H247.606V48.3573C247.569 46.8697 246.819 46.1259 245.356 46.1259C244.674 46.1259 244.104 46.4048 243.645 46.9627C243.186 47.5081 242.957 48.1651 242.957 48.9337V53.9729H241.246V44.8614Z" fill="#132653"/>
<g filter="url(#filter0_d)">
<path d="M102.433 55.7257L69.8674 68.8166L42 55.7257L69.8674 48.425L102.433 55.7257Z" fill="#F8BFD5"/>
<path d="M69.3195 63.8191L53.1237 56.9051C52.2674 56.5396 51.7119 55.6984 51.7119 54.7674V38.9954C51.7119 37.4819 53.1353 36.3721 54.6031 36.7412L69.6494 40.5248C69.9891 40.6102 70.3438 40.6177 70.6868 40.5468L89.8173 36.592C91.2597 36.2938 92.6122 37.3953 92.6122 38.8682V54.3533C92.6122 55.3294 92.0023 56.2015 91.0855 56.5365L71.0297 63.8646C70.4746 64.0674 69.863 64.0511 69.3195 63.8191Z" fill="#F8F2F4"/>
<path d="M69.9507 45.1877L51.7128 40.8711V56.1985L69.9507 64.0731V45.1877Z" fill="#E6D1D9"/>
<path d="M82.6845 29L95.8888 37.4028C96.7417 37.9455 96.5428 39.2432 95.5664 39.5056L66.3891 47.3458L47.9639 42.1091C47.0731 41.8559 46.8218 40.7133 47.5242 40.1098L60.127 29.2807C60.3378 29.0996 60.6065 29 60.8844 29H82.6845Z" fill="url(#paint0_linear)"/>
<path d="M82.6845 29L95.8888 37.4028C96.7417 37.9455 96.5428 39.2432 95.5664 39.5056L66.3891 47.3458M82.6845 29L66.3891 47.3458M82.6845 29H60.8844C60.6065 29 60.3378 29.0996 60.127 29.2807L47.5242 40.1098C46.8218 40.7133 47.0731 41.8559 47.9639 42.1091L66.3891 47.3458" stroke="#6E6EC4" stroke-width="0.581088"/>
<path d="M80.8499 48.64L87.7565 46.2659V57.8129L80.8499 60.295V48.64Z" fill="#E6D1D9"/>
<path d="M59.4824 46.9665L57.1083 46.2659V51.7729L59.4824 52.525V46.9665Z" fill="#F8F2F4"/>
<path d="M62.5044 47.831L60.1302 47.1304V52.6374L62.5044 53.3895V47.831Z" fill="#F8F2F4"/>
</g>
<defs>
<filter id="filter0_d" x="0.161698" y="0.817271" width="134.812" height="114.486" filterUnits="userSpaceOnUse" color-interpolation-filters="sRGB">
<feFlood flood-opacity="0" result="BackgroundImageFix"/>
<feColorMatrix in="SourceAlpha" type="matrix" values="0 0 0 0 0 0 0 0 0 0 0 0 0 0 0 0 0 0 127 0"/>
<feOffset dx="-4.6487" dy="9.2974"/>
<feGaussianBlur stdDeviation="18.5948"/>
<feColorMatrix type="matrix" values="0 0 0 0 0.956863 0 0 0 0 0.313726 0 0 0 0 0.560784 0 0 0 0.3 0"/>
<feBlend mode="normal" in2="BackgroundImageFix" result="effect1_dropShadow"/>
<feBlend mode="normal" in="SourceGraphic" in2="effect1_dropShadow" result="shape"/>
</filter>
<linearGradient id="paint0_linear" x1="72.0007" y1="29" x2="72.0007" y2="47.3458" gradientUnits="userSpaceOnUse">
<stop stop-color="#B7B7E1"/>
<stop offset="1" stop-color="#6E6EC4"/>
</linearGradient>
</defs>
</svg>
